<?xml version="1.0" standalone="no"?><!DOCTYPE svg PUBLIC "-//W3C//DTD SVG 1.1//EN" "http://www.w3.org/Graphics/SVG/1.1/DTD/svg11.dtd"><svg width="100%" height="100%" viewBox="0 0 540 431" version="1.1" xmlns="http://www.w3.org/2000/svg" xmlns:xlink="http://www.w3.org/1999/xlink" xml:space="preserve" style="fill-rule:evenodd;clip-rule:evenodd;stroke-linejoin:round;stroke-miterlimit:1.41421;"><path d="M444.174,286.004c-15.794,-0.687 -39.297,9.772 -47.016,25.669c-11.165,23 10.641,39.197 30.019,39.55c11.5,0.219 25.263,2.994 36.656,-0.009c10.332,-2.725 14.775,-9.978 23.041,-14.866c12.528,-7.406 32.803,14.928 44.356,-0.615c18.066,-24.3 -21.462,-26.56 -32.822,-30.029c-17.468,-5.328 -35.968,-18.897 -54.234,-19.7Z" style="fill:#2d2a21;fill-rule:nonzero;"/><path d="M92.202,342.317c15.091,-5.063 33.603,-27.903 22.078,-46.231c-9.99,-15.872 -46.512,-16.907 -60.872,-12.5c-16.612,5.09 -42.034,16.431 -43.968,39.025c-0.938,11.025 4.85,14.984 12.331,20.306c10.231,7.287 11.462,6.759 21.49,2.578c16.941,-7.053 30.535,2.994 48.941,-3.178Z" style="fill:#2d2a21;fill-rule:nonzero;"/><path d="M135.23,367.811c1.335,-6.485 -1.228,-14.269 -1.203,-21.244c-2.512,-0.819 -4.612,-2.131 -5.478,-4.425c-2.031,-5.356 5.078,-12.9 5.381,-18.981c0.422,-8.435 -1.103,-15.413 -7.362,-20.632c-12.86,-10.712 -39.66,-7.337 -52.694,0.697c-18.366,11.322 -28.163,38.525 -23.106,61.047c6.4,28.5 29.075,37.041 52.181,38.647c3.578,-1.944 7.044,-3.922 10.144,-5.963c10.315,-6.803 19.534,-16.456 22.137,-29.146Z" style="fill:#454137;fill-rule:nonzero;"/><path d="M164.577,372.348c2.141,-16.534 -5.794,-20.972 -18.519,-23.809c-2.875,-0.641 -7.993,-0.66 -12.031,-1.972c-0.025,6.975 2.538,14.759 1.203,21.244c-2.603,12.69 -11.822,22.343 -22.137,29.146c-3.1,2.041 -6.566,4.019 -10.144,5.963c3.056,0.212 6.119,0.313 9.156,0.313c22.3,0 48.816,-2.569 52.472,-30.885Z" style="fill:#fff;fill-rule:nonzero;"/><path d="M55.958,274.804c6.488,14.31 13.063,24.113 24.907,32.578c14.128,10.091 25.365,24.619 38.868,35.672c31.016,25.397 67.597,37.4 105.528,42.691c28.388,3.95 57.647,7.862 86.125,2.706c12.922,-2.34 24.985,-7.809 37.969,-9.772c10.285,-1.562 18.469,-3.553 27.475,-9.759c17.538,-12.103 27.825,-30.772 42.206,-46.291c12.232,-13.2 22.076,-26.728 19.563,-47.078c-2.953,-23.94 -4.25,-47.6 -16.575,-68.468c-12.428,-21.035 -32.747,-39.341 -51.353,-53.61c-24.297,-18.634 -55.513,-32.55 -84.356,-39.112c-57.994,-13.178 -129.941,-18.604 -185.438,9.24c-52.384,26.316 -70.409,95.041 -44.919,151.203Z" style="fill:#2d2a21;fill-rule:nonzero;"/><path d="M209.862,258.695c85.69,0 158.209,40.7 182.565,96.813c-4.947,5.131 -10.172,9.659 -15.597,13.412c-9.006,6.206 -17.19,8.197 -27.475,9.759c-12.984,1.963 -25.047,7.432 -37.969,9.772c-28.478,5.156 -57.737,1.244 -86.125,-2.706c-37.931,-5.291 -74.512,-17.294 -105.528,-42.691c-13.503,-11.053 -24.74,-25.581 -38.868,-35.672c-3.032,-2.165 -5.697,-4.421 -8.125,-6.809c34.759,-25.819 83.331,-41.878 137.122,-41.878Z" style="fill:#e5e5e5;fill-rule:nonzero;"/><path d="M429.015,398.751c23.534,-17.975 35.168,-46.319 31.278,-78.772c-3.575,-29.831 -20.172,-60.962 -47.722,-68.756c-26.088,-7.372 -58.328,14.185 -43.663,47.769c4.566,10.447 10.994,12.225 4.097,23.712c-4.462,7.441 -12.15,12.263 -19.175,16.072c-15.406,8.36 -32.497,11.863 -48.953,16.628c-15.203,4.403 -29.247,7.01 -34.844,26.378c-5.081,17.597 -0.253,38.129 16.897,44.435c16.735,6.159 41.044,-10.669 59.1,-11.594c23.107,-1.187 55.988,1.534 76.503,-11.378c2.254,-1.416 4.416,-2.916 6.482,-4.494Z" style="fill:#454137;fill-rule:nonzero;"/><path d="M353.83,338.776c-7.44,4.044 -15.284,6.935 -23.25,9.397c8.788,1.331 17.281,4.069 26.394,2.566c7.869,-1.294 14.691,-3.794 20.919,-7.678l0.015,-0.01c2.6,-1.622 5.094,-3.484 7.513,-5.615l0.697,-0.657c0.968,-0.881 1.934,-1.784 2.884,-2.756c1.213,-1.256 2.413,-2.572 3.597,-3.981c11.809,-14.075 15.803,-29.835 16.069,-48.553c0.128,-8.725 0.912,-17.163 1.072,-25.897c0.025,-1.516 0.125,-3.05 0.243,-4.581l0.05,-0.407c-25.578,-5.353 -55.322,15.885 -41.125,48.388c4.566,10.447 10.994,12.225 4.097,23.712c-4.462,7.441 -12.15,12.263 -19.175,16.072Z" style="fill:#2d2a21;fill-rule:nonzero;"/><path d="M385.843,222.992c0.65,4.625 1.006,9.344 1.197,14.065c1.484,36.916 -10.885,75.213 -31.285,101.882c-23.475,30.7 -47.047,43.681 -81.681,39.809c-44.653,-4.994 -88.759,-11.072 -130.072,-29.353c-46.781,-20.703 -95.6,-82.566 -66.672,-146.828c26.875,-59.709 77.685,-83.11 132.191,-80.713c35.04,1.544 75.819,-4.962 109.419,9.988c14.203,6.319 21.618,21.503 31.462,34.369c8.931,11.69 20.531,18.809 28.022,32.543c3.994,7.322 6.209,15.61 7.419,24.238Z" style="fill:#fe8b00;fill-rule:nonzero;"/><path d="M348.04,385.776c0.981,22.438 -19.235,41.594 -45.15,42.791c-25.907,1.19 -47.713,-16.028 -48.694,-38.46c-0.978,-22.44 19.234,-41.593 45.144,-42.793c25.915,-1.191 47.718,16.025 48.7,38.462Z" style="fill:#fff;fill-rule:nonzero;"/><path d="M80.14,240.548c5.671,-10.19 18.853,-20.884 30.231,-23.009c28.997,-5.4 46.325,-15.978 68.406,-36.544c4.581,-4.269 8.903,-8.75 12.088,-14.537c6.231,-11.335 8.1,-24.163 12.04,-36.407c3.057,-9.519 5.6,-18.615 5.938,-28.769c0.85,-25.037 -11.794,-45.553 -21.313,-67.109c24.363,-1.775 49.553,1.55 73.25,9.191c18.663,6.018 40.247,11.109 60.635,18.315l-0.31,0.294l-0.587,-0.328c-16.891,16.103 -36.275,30 -44.925,53.425c-3.503,9.503 -4.588,18.897 -5.347,28.894c-0.981,12.853 -4.085,25.425 -2.6,38.359c0.75,6.597 3.053,12.444 5.662,18.2c1.982,4.35 3.953,8.397 5.953,12.25l0.25,0.509l0.129,0.219c10.656,20.275 22.412,34.141 43.006,47.891c9.694,6.475 17.812,21.569 19.209,33.219c1.581,13.2 2.2,30.193 9.503,41.34c2.638,4.016 7.807,8.091 13.763,11.266c-6.228,3.881 -13.053,6.384 -20.919,7.675c-10.819,1.787 -20.766,-2.431 -31.369,-3.144c-10.822,-0.725 -22.287,-0.375 -33.222,0.059c-13.687,0.535 -27.453,4.697 -41.456,4.963c-25.094,0.472 -50.231,-2.831 -74.184,-10.422c-20.238,-6.409 -37.513,-18.281 -56.756,-27.053c-25.15,-11.478 -49.088,-18.091 -61.663,-40.813c13.506,2.229 29.444,-28.699 34.588,-37.934Z" style="fill:#fff;fill-rule:nonzero;"/><path d="M43.105,273.504c-0.684,-1.568 -1.315,-3.215 -1.903,-4.928l-0.259,-0.765c-0.56,-1.685 -1.072,-3.435 -1.532,-5.263l-0.203,-0.844c-0.456,-1.912 -0.875,-3.881 -1.228,-5.962c-3.131,-18.653 0.066,-34.266 3.716,-52.4c1.34,-6.644 2.944,-13.284 4.859,-19.76c0.728,-2.49 1.506,-4.959 2.344,-7.39c3.987,-11.597 8.062,-20.588 10.506,-32.653c0.494,-2.444 1.106,-4.894 1.781,-7.341c0.085,-0.316 0.166,-0.631 0.26,-0.944c0.709,-2.5 1.497,-4.99 2.365,-7.465l0,-0.007c2.744,-7.159 5.619,-14.3 9.219,-21.278c24.05,-46.703 67.741,-68.922 114.5,-72.331c9.519,21.556 22.163,42.072 21.313,67.109c-0.338,10.154 -2.881,19.25 -5.938,28.769c-3.94,12.244 -5.809,25.072 -12.04,36.407c-3.185,5.787 -7.507,10.268 -12.088,14.537c-22.081,20.566 -39.409,31.144 -68.406,36.544c-11.378,2.125 -24.56,12.819 -30.231,23.009c-5.144,9.235 -21.082,40.163 -34.588,37.934l-0.012,-0.034c-0.829,-1.491 -1.6,-3.066 -2.329,-4.706l-0.106,-0.238Z" style="fill:#454137;fill-rule:nonzero;"/><path d="M351.358,335.951c-7.303,-11.147 -7.922,-28.14 -9.503,-41.34c-1.397,-11.65 -9.515,-26.744 -19.209,-33.219c-20.594,-13.75 -32.35,-27.616 -43.006,-47.891l-0.129,-0.219l-0.25,-0.509c-2,-3.853 -3.971,-7.9 -5.953,-12.25c-2.609,-5.756 -4.912,-11.603 -5.662,-18.2c-1.485,-12.934 1.619,-25.506 2.6,-38.359c0.759,-9.997 1.844,-19.391 5.347,-28.894c8.65,-23.425 28.034,-37.322 44.925,-53.425l0.587,0.328l0.31,-0.294c18.771,6.632 36.525,15.041 50.015,27.666c32.069,30.009 41.463,65.8 36.838,110.253c-0.247,2.316 -0.578,4.647 -0.982,6.985c-0.168,0.965 -0.381,1.934 -0.571,2.906c-0.266,1.397 -0.529,2.794 -0.828,4.2c-0.441,2.015 -0.922,4.04 -1.413,6.065c-0.306,1.269 -0.619,2.541 -0.941,3.81c-0.143,0.597 -0.293,1.197 -0.446,1.793c-1.282,5.116 -2.572,10.235 -3.644,15.325c-0.107,0.55 -0.213,1.091 -0.316,1.632c-0.319,1.59 -0.609,3.175 -0.866,4.759c-0.106,0.619 -0.209,1.241 -0.299,1.853c-0.31,2.088 -0.572,4.169 -0.744,6.238c-0.125,1.534 -0.219,3.065 -0.247,4.584c-0.16,8.734 -0.944,17.169 -1.072,25.894c-0.266,18.722 -4.262,34.478 -16.075,48.556c-1.178,1.409 -2.381,2.725 -3.594,3.978c-0.95,0.975 -1.915,1.875 -2.884,2.76l-0.697,0.656c-2.419,2.128 -4.909,3.99 -7.509,5.612l-0.019,0.013c-5.956,-3.175 -11.125,-7.25 -13.763,-11.266Z" style="fill:#454137;fill-rule:nonzero;"/><path d="M151.058,55.661c-15.172,-4.535 -32.481,-2.682 -48.078,-2.375c-26.653,0.518 -52.209,-11.219 -79.362,-8.013c-4.428,0.522 -8.375,2.059 -12.182,3.95c-5.671,-5.8 -19.59,-21.841 -4.943,-25.412c5.647,-1.372 12.378,0.15 17.809,-0.038c7.166,-0.244 14.475,-1.853 21.459,-3.6c1.579,-0.394 3.163,-0.787 4.75,-1.178c16.116,-3.981 32.641,-7.884 48.538,-12.681c17.912,-5.407 33.919,-7.416 52.484,-5.738c10.557,0.96 22.382,5.156 31.216,10.972c13.3,8.763 18.284,37.691 10.419,51.534c-4.594,8.082 -14.1,12.96 -22.757,14.579c-0.521,0.103 -1.012,0.212 -1.525,0.312c0.363,-1.228 0.56,-2.534 0.413,-4.094c-0.884,-9.39 -10.063,-15.775 -18.241,-18.218Z" style="fill:#454137;fill-rule:nonzero;"/><path d="M145.98,88.183c-22.297,18.218 -47.653,-0.588 -69.812,-7.31c-7.51,-2.278 -14.732,-5.903 -22,-8.997c-15.51,-6.606 -30.182,-9.959 -42.444,-22.359l-0.288,-0.294c3.807,-1.891 7.754,-3.428 12.182,-3.95c27.153,-3.206 52.709,8.531 79.362,8.013c15.597,-0.307 32.906,-2.16 48.078,2.375c8.178,2.443 17.357,8.828 18.241,18.218c0.147,1.56 -0.05,2.866 -0.413,4.094c-8.856,1.775 -15.537,4.188 -22.906,10.21Z" style="fill:#2d2a21;fill-rule:nonzero;"/><path d="M354.783,98.476c15.535,-2.972 32.582,0.635 48.078,2.516c26.469,3.219 53.026,-5.866 79.738,0.078c4.356,0.966 8.134,2.903 11.744,5.166c6.2,-5.194 21.6,-19.747 7.369,-24.785c-5.491,-1.937 -12.335,-1.106 -17.722,-1.84c-7.103,-0.975 -14.225,-3.319 -21.013,-5.763c-1.528,-0.553 -3.069,-1.106 -4.609,-1.656c-15.66,-5.597 -31.722,-11.153 -47.078,-17.544c-17.31,-7.197 -33.041,-10.819 -51.678,-11.031c-10.597,-0.119 -22.772,2.853 -32.122,7.75c-14.075,7.369 -21.819,35.65 -15.322,50.225c3.79,8.509 12.784,14.325 21.237,16.815c0.519,0.154 0.994,0.313 1.491,0.463c-0.241,-1.256 -0.313,-2.575 -0.013,-4.109c1.782,-9.26 11.529,-14.688 19.9,-16.285Z" style="fill:#454137;fill-rule:nonzero;"/><path d="M356.708,131.357c20.435,20.388 47.482,4.25 70.179,-0.193c7.687,-1.506 15.228,-4.378 22.759,-6.719c16.065,-5 30.987,-6.847 44.384,-17.944l0.313,-0.265c-3.61,-2.263 -7.388,-4.2 -11.744,-5.166c-26.712,-5.944 -53.269,3.141 -79.738,-0.078c-15.496,-1.881 -32.543,-5.488 -48.078,-2.516c-8.371,1.597 -18.118,7.025 -19.9,16.285c-0.3,1.534 -0.228,2.853 0.013,4.109c8.644,2.669 15.059,5.744 21.812,12.487Z" style="fill:#2d2a21;fill-rule:nonzero;"/><path d="M176.774,205.392c-2.638,15.347 13.997,31.065 37.15,35.094c23.147,4.031 44.053,-5.157 46.687,-20.507c2.638,-15.353 -13.993,-31.062 -37.143,-35.087c-23.15,-4.028 -44.06,5.144 -46.694,20.5Z" style="fill:#221e1f;fill-rule:nonzero;"/><path d="M203.436,261.723c3.169,-9.012 7.301,-17.844 8.757,-18.466c3.14,-4.237 5.693,-5.646 4.915,-8.412c-0.778,-2.756 -5.084,-2.381 -7.768,-1.581c-7.157,2.14 -12.382,14.037 -15.707,24.672l9.803,3.787Z" style="fill:#221e1f;fill-rule:nonzero;"/><path d="M246.158,260.504c25.591,-0.762 78.772,47.666 44.263,44.172c-23.05,-2.353 -56.169,-11.272 -78.581,-16.14c-21.194,-4.629 -32.379,-22.944 -51.863,-27.325c29.456,0.187 56.835,0.165 86.181,-0.707c17.847,-0.534 -16.962,0.503 0,0Z" style="fill:#922f42;fill-rule:nonzero;"/><path d="M309.349,305.911c-10.203,0 -19.869,-13.357 -28.922,-27.15c-1.269,-1.932 -2.85,-4.344 -3.347,-4.888c-12.165,-12.25 -31.069,-9.012 -47.75,-6.15l-2.772,0.475c-13.393,2.256 -74.515,-1.944 -90.178,-14.74c-2.881,-2.351 -4.437,-5.063 -4.637,-8.051c-0.182,-2.753 1.837,-5.134 4.503,-5.324c2.644,-0.21 4.903,1.821 5.153,4.512c3.666,8.197 64.45,16.972 83.594,13.744l2.747,-0.472c18.012,-3.081 40.431,-6.925 56.134,8.894c1.053,1.062 2.228,2.828 4.575,6.406c3.822,5.816 15.387,23.556 21.203,22.737c1.141,-0.162 2.928,-2.078 4.522,-6.968c0.853,-2.616 3.588,-4.025 6.131,-3.147c2.538,0.878 3.9,3.709 3.047,6.322c-2.703,8.309 -6.872,12.912 -12.387,13.684c-0.541,0.078 -1.079,0.116 -1.616,0.116Z" style="fill:#221e1f;fill-rule:nonzero;"/><path d="M161.702,179.901c-4.912,1.235 -10.978,0.641 -14.612,-0.059c-5.622,-1.088 -11.366,-1.934 -16.894,-3.294c-7.235,-1.781 -14.969,-3.128 -22.303,-4.453c-10,-1.806 -20.807,-3.009 -30.478,-6.45c2.128,0.759 13.606,-6.491 15.003,-8.138c-5.357,-2.734 -9.86,-6.581 -13.263,-11.412c10.791,3.603 23.816,4.834 34.841,7.584c13.756,3.429 27.487,6.478 41.222,9.854c5.428,1.331 14.518,1.378 14.334,7.803c-0.141,5.012 -3.556,7.484 -7.85,8.565Z" style="fill:#221e1f;fill-rule:nonzero;"/><path d="M295.583,202.854c3.691,3.55 9.257,6.094 12.757,7.313c5.418,1.89 10.825,4.053 16.29,5.653c7.153,2.097 14.535,4.828 21.556,7.372c9.579,3.469 19.569,7.872 29.644,9.753c-2.219,-0.413 -8.753,-12.513 -9.184,-14.656c5.975,0.318 11.744,-0.757 17.009,-3.25c-11.122,-2.303 -23.056,-7.803 -33.975,-10.969c-13.622,-3.95 -27.043,-8.219 -40.619,-12.209c-5.362,-1.575 -13.306,-6.119 -16.218,-0.432c-2.278,4.441 -0.485,8.313 2.74,11.425Z" style="fill:#221e1f;fill-rule:nonzero;"/><path d="M406.515,224.279c0.693,-7.565 3.943,-22.962 13.384,-13.284c3.438,3.519 3.678,8.703 8.231,11.2c5.735,3.15 16.453,3.366 22.663,2.825c9.581,-0.834 19.397,-5.688 27.662,-9.844c4.544,11.438 -1.362,32.578 -7.9,41.435c-3.378,4.571 -7.003,8.659 -12.225,10.731c-3.787,1.5 -7.7,2.281 -11.728,2.859c-6.122,0.869 -10.753,-2.325 -16.519,-3.831c-5.312,-1.394 -8.553,-2.4 -12.643,-7.131c-7.744,-8.969 -12.032,-22.925 -10.925,-34.96Z" style="fill:#2d2a21;fill-rule:nonzero;"/></svg>