<?xml version="1.0" standalone="no"?><!DOCTYPE svg PUBLIC "-//W3C//DTD SVG 1.1//EN" "http://www.w3.org/Graphics/SVG/1.1/DTD/svg11.dtd"><svg width="100%" height="100%" viewBox="0 0 457 639" version="1.1" xmlns="http://www.w3.org/2000/svg" xmlns:xlink="http://www.w3.org/1999/xlink" xml:space="preserve" style="fill-rule:evenodd;clip-rule:evenodd;stroke-linejoin:round;stroke-miterlimit:1.41421;"><path d="M130.697,406.017c-0.713,-7.322 -4.044,-22.231 -13.731,-12.856c-3.525,3.403 -3.775,8.418 -8.444,10.84c-5.881,3.05 -16.881,3.256 -23.25,2.731c-9.831,-0.806 -19.897,-5.503 -28.375,-9.525c-4.666,11.069 1.397,31.541 8.103,40.113c3.469,4.425 7.181,8.381 12.544,10.387c3.881,1.451 7.893,2.21 12.025,2.769c6.281,0.841 11.031,-2.25 16.947,-3.712c5.45,-1.347 8.775,-2.319 12.971,-6.903c7.944,-8.678 12.341,-22.194 11.21,-33.844Z" style="fill:#2d2a21;fill-rule:nonzero;"/><path d="M89.319,590.551c19.662,-3.794 42.837,-8.865 57.053,-26.197c13.719,-16.734 14.925,-48.368 1.147,-67.903c-29.638,-42.009 -85.428,-73.275 -115.303,-21.897c-13.957,23.994 7.45,58.253 22.297,76.063c-8.129,3.412 -17.794,0.112 -24.56,7.934c-5.919,6.835 -6.519,19.056 -0.144,26.141c15.785,17.528 41.828,9.266 59.51,5.859Z" style="fill:#2d2a21;fill-rule:nonzero;"/><path d="M353.197,583.664c-19.76,-3.228 -43.053,-7.644 -57.625,-24.9c-14.063,-16.656 -15.909,-48.953 -2.506,-69.388c28.828,-43.937 84.031,-77.744 114.959,-26.206c14.441,24.075 -6.288,59.809 -20.794,78.513c8.21,3.221 17.813,-0.469 24.735,7.306c6.065,6.794 6.909,19.259 0.672,26.709c-15.454,18.453 -41.672,10.866 -59.441,7.966l0,0Z" style="fill:#2d2a21;fill-rule:nonzero;"/><path d="M220.631,362.939c-24.806,0.047 -53.128,-5.385 -77.172,3.04c-9.293,3.253 -12.943,9.697 -19.703,16.466c-8.262,8.263 -18.669,13.456 -24.731,24.084c-3.447,6.038 -4.147,12.897 -7.55,18.947c-4.713,8.378 -12.447,14.403 -16.188,23.585c-6.884,16.909 -11.871,39.493 -10.115,57.809c2.512,26.178 12.365,49.675 37.281,58.147c17.075,5.809 37.747,6.987 55.01,9.644c39.806,6.122 80.153,3.437 121.024,1.29c27.285,-1.44 65.841,3.319 83.782,-22.084c15.368,-21.756 13.809,-55.006 8.362,-80.469c-6.072,-28.372 -20.856,-52.994 -38.165,-74.962c-23.919,-30.357 -76.988,-35.56 -111.835,-35.497l0,0Z" style="fill:#2d2a21;fill-rule:nonzero;"/><path d="M307.788,408.126c-20.866,-33.268 -79.757,-33.294 -112.063,-25.268c-25.762,6.403 -49.966,14.493 -64.266,39.768c-8.268,14.622 -9.562,29.31 -4.575,45.341c2.666,8.578 6.994,16.419 9.985,24.841c2.487,7.006 1.465,10.578 2.284,17.443c2.481,20.944 18.6,44.291 32.084,59.294c3.444,3.838 7.26,7.581 11.341,11.028c22.988,1.56 68.484,2.091 91.816,0.988c12.647,-10.644 21.931,-26.897 30.409,-40.757c21.885,-35.781 28.753,-91.584 2.985,-132.678l0,0Z" style="fill:#e5e5e5;fill-rule:nonzero;"/><path d="M162.275,435.901c0,0 -29.775,65.485 15.838,147l-65.885,11.363c0,0 -54.475,-100.9 13.938,-185.757l36.109,27.394Z" style="fill:#454137;fill-rule:nonzero;"/><path d="M187.1,579.714c2.494,17.55 -14.525,34.762 -38.003,38.475c-23.472,3.7 -44.522,-7.51 -47.01,-25.06c-2.487,-17.528 14.529,-34.756 37.997,-38.459c23.478,-3.709 44.528,7.506 47.016,25.044Z" style="fill:#fff;fill-rule:nonzero;"/><path d="M283.35,435.901c0,0 29.775,65.485 -15.847,147l65.891,11.363c0,0 54.484,-100.9 -13.944,-185.757l-36.1,27.394l0,0Z" style="fill:#454137;fill-rule:nonzero;"/><path d="M258.516,579.714c-2.485,17.55 14.528,34.762 38.012,38.475c23.463,3.7 44.516,-7.51 47.006,-25.06c2.482,-17.528 -14.525,-34.756 -37.996,-38.459c-23.476,-3.709 -44.535,7.506 -47.022,25.044Z" style="fill:#fff;fill-rule:nonzero;"/><path d="M105.634,355.32c-5.634,11.744 -6.003,32.444 -0.268,43.972c5.456,10.978 15.85,20.603 25.378,27.484c21.065,15.222 47.347,22.119 72.597,23.453c37.037,1.969 75.556,1.741 105.759,-22.965c15.072,-12.328 27.769,-25.022 30.444,-45.847c7.031,-54.663 -42.019,-66.988 -83.888,-74.897c-39.409,-7.444 -99.909,-12.788 -129.556,22.225c-6.375,7.537 -16.103,17.478 -20.466,26.575l0,0Z" style="fill:#fe8b00;fill-rule:nonzero;"/><path d="M395.909,291.817c-0.036,-6.566 -0.329,-13.185 -0.952,-19.703c-0.232,-2.51 -0.515,-5.003 -0.86,-7.475c-1.651,-11.791 -3.877,-21.122 -3.954,-33.05c-0.071,-12.585 -2.631,-25.86 -6.129,-37.822c-14.335,-49.041 -52.177,-78.694 -96.514,-91.097c-23.097,-6.463 -47.957,-8.247 -72.193,-5.641c-19.084,2.053 -40.809,2.657 -61.774,5.494c-19.304,2.613 -37.968,7.116 -53.325,16.453c-36.497,22.197 -52.275,54.325 -56.204,97.419c-1.613,17.716 2.178,37.319 0.157,54.906c-0.169,1.478 -0.37,2.95 -0.626,4.397c-1.492,8.322 -2.325,16.481 -3.849,24.788c-3.269,17.818 -2.396,33.562 6.313,49.237c7.436,13.372 16.873,21.516 30.366,26.625c10.07,3.813 20.432,1.759 30.77,3.166c10.542,1.434 21.506,4.012 31.943,6.568c13.067,3.191 25.526,9.838 38.948,12.838c24.045,5.366 48.847,7.159 73.319,4.65c20.673,-2.112 39.526,-9.991 59.69,-14.547c33.583,-7.594 63.789,-8.069 78.574,-46.744c6.525,-17.087 6.393,-32.531 6.3,-50.462l0,0Z" style="fill:#fff;fill-rule:nonzero;"/><path d="M254.522,190.651c1.503,12.397 0.872,24.938 4.784,36.916c2,6.119 5.353,11.219 9.006,16.165c17.594,23.851 32.466,37.285 59.7,48.1c10.685,4.244 21.488,16.979 25.072,27.763c3.247,9.775 12.875,42.253 26.466,42.784c4.547,-5.234 8.5,-11.778 11.722,-20.1c6.612,-17.087 6.478,-32.531 6.384,-50.462c-0.037,-6.566 -0.334,-13.185 -0.965,-19.703c-0.235,-2.51 -0.522,-5.003 -0.872,-7.475c-1.672,-11.791 -3.928,-21.122 -4.006,-33.05c-0.029,-5.2 -0.504,-10.516 -1.288,-15.816c-1.306,-7.331 -2.747,-14.675 -4.922,-22.006c-14.525,-49.041 -52.869,-78.694 -97.794,-91.097c-13.39,18.594 -29.631,35.584 -33.584,59.512c-1.606,9.704 -0.866,18.835 0.297,28.469l0,0Z" style="fill:#454137;fill-rule:nonzero;"/><path d="M40.703,224.42c-0.025,1.966 -0.031,3.941 0.019,5.931c0.322,13.697 2.04,27.878 0.522,40.95c-0.172,1.478 -0.375,2.95 -0.635,4.397c-1.512,8.322 -2.356,16.481 -3.9,24.788c-3.312,17.818 -2.428,33.562 6.397,49.237c3.444,6.116 7.35,11.094 11.844,15.234c6.412,-1.846 12.228,-4.696 15.566,-7.993c9.246,-9.141 13.093,-25.153 17.156,-37.369c3.584,-10.784 14.381,-23.519 25.065,-27.763c22.694,-9.012 36.804,-19.865 51.057,-37.021l0.168,-0.185l0.344,-0.434c2.682,-3.259 5.378,-6.719 8.138,-10.46c3.643,-4.946 7.006,-10.046 9,-16.165c3.909,-11.978 3.287,-24.519 4.784,-36.916c1.169,-9.634 1.903,-18.765 0.303,-28.469c-3.953,-23.928 -20.197,-40.918 -33.587,-59.512l-0.635,0.194l-0.243,-0.341c-19.56,2.613 -38.472,7.116 -54.032,16.453c-36.981,22.197 -52.968,54.325 -56.95,97.419c-0.209,2.266 -0.328,4.559 -0.381,6.881c-0.006,0.378 0.006,0.766 0,1.144l0,0Z" style="fill:#454137;fill-rule:nonzero;"/><path d="M264.484,261.795c-0.125,15.338 -18.54,27.456 -41.109,27.056c-22.581,-0.4 -40.778,-13.162 -40.65,-28.503c0.125,-15.337 18.534,-27.45 41.109,-27.05c22.572,0.4 40.782,13.156 40.65,28.497Z" style="fill:#221e1f;fill-rule:nonzero;"/><path d="M229.45,338.901c-9.894,2.072 1.147,-16.793 -2.303,-34.509c-1.828,-9.394 -10.306,-27.225 -4.256,-29.322c18.168,-6.284 19.443,66.353 7.706,64.059c-1.991,-0.387 -0.631,-0.128 -1.147,-0.228Z" style="fill:#221e1f;fill-rule:nonzero;"/><path d="M287.516,351.304c-16.76,0 -35.766,-3.662 -51.635,-9.281c-8.581,-3.037 -17.812,2.506 -27.078,3.756c-9.297,1.25 -18.728,1.672 -28.106,1.56c-16.356,1.225 -44.197,-9.725 -32.956,-27.241c8.621,-13.444 20.884,2.231 11.781,3.881c-10.369,1.882 4.356,13.738 9.444,13.954c16.737,0.703 36.234,0.375 52.281,-4.719c14.759,-4.681 30.569,3.487 46.278,5.934c11.119,1.728 23.656,4.422 34.506,-0.119c12.828,-5.368 -1.89,-18.247 6.231,-22.646c9.454,-5.119 10.235,17.218 8.029,22.05c-4.81,10.509 -18.488,12.871 -28.775,12.871c-3.166,0 10.768,0 0,0l0,0Z" style="fill:#221e1f;fill-rule:nonzero;"/><path d="M103.366,49.011c-14.254,-12.191 -62.65,-62.516 -83.8,-45.553c-10.775,8.64 -0.804,33.046 -1.075,46.459c-0.825,40.309 0.434,62.116 20.115,83c6.9,7.322 16.066,14.531 28.203,22.384c6.104,3.95 11.21,5.528 15.888,5.775c11.906,0.628 20.919,-7.668 35.84,-9.4c15.613,-1.812 26.041,-1.056 32.429,-16.478c0.893,-2.15 1.703,-4.606 2.44,-7.437c10.235,-39.357 -26.375,-58.488 -50.04,-78.75l0,0Z" style="fill:#454137;fill-rule:nonzero;"/><path d="M59.516,136.757c-15.357,-24.559 -20.504,-49.968 -23.253,-78.571c-0.313,-3.257 -2.385,-8.907 -0.938,-12.294c2.394,-5.613 2.447,-2.2 6.994,-4.922c6.165,-3.688 7.537,-6.113 15.178,-0.516c12.644,9.257 23.122,20.732 37.669,27.432c17.843,8.209 37.256,20.75 48.725,38.287c5.368,8.206 7.634,18.728 7.075,29.025c-6.388,15.422 -16.816,14.666 -32.429,16.478c-14.921,1.732 -23.934,10.028 -35.84,9.4c-9.41,-6.087 -17.016,-14.447 -23.181,-24.319l0,0Z" style="fill:#2d2a21;fill-rule:nonzero;"/><path d="M377.012,227.995c0,25.581 -23.724,48.088 -51.125,42.509c-34.287,-6.978 -53.54,-20.103 -53.54,-45.681c0,-25.578 26.234,-43.14 54.137,-43.14c27.907,0 50.528,20.734 50.528,46.312l0,0Z" style="fill:#fff;fill-rule:nonzero;"/><path d="M63.322,228.948c0,25.578 23.725,48.084 51.125,42.506c34.287,-6.978 53.54,-20.103 53.54,-45.681c0,-25.578 -26.234,-43.141 -54.14,-43.141c-27.903,0 -50.525,20.735 -50.525,46.316l0,0Z" style="fill:#fff;fill-rule:nonzero;"/><path d="M148.6,226.092c0,16.912 -13.003,30.619 -29.028,30.619c-16.035,0 -29.028,-13.707 -29.028,-30.619c0,-16.91 12.993,-30.616 29.028,-30.616c16.025,0 29.028,13.706 29.028,30.616l0,0Z" style="fill:#221e1f;fill-rule:nonzero;"/><path d="M344.459,226.092c0,16.912 -13,30.619 -29.028,30.619c-16.034,0 -29.025,-13.707 -29.025,-30.619c0,-16.91 12.991,-30.616 29.025,-30.616c16.028,0 29.028,13.706 29.028,30.616l0,0Z" style="fill:#221e1f;fill-rule:nonzero;"/><path d="M421.909,3.458c-21.15,-16.963 -69.54,33.362 -83.793,45.553c-23.675,20.262 -60.282,39.393 -50.05,78.75c0.737,2.831 1.553,5.287 2.443,7.437c6.388,15.422 16.822,14.666 32.435,16.478c14.915,1.732 23.928,10.028 35.84,9.4c4.672,-0.247 9.775,-1.825 15.885,-5.775c12.134,-7.853 21.3,-15.062 28.203,-22.384c19.678,-20.884 20.944,-42.691 20.115,-83c-0.271,-13.413 9.704,-37.819 -1.078,-46.459l0,0Z" style="fill:#454137;fill-rule:nonzero;"/><path d="M381.962,136.757c15.36,-24.559 20.507,-49.968 23.25,-78.571c0.313,-3.257 2.385,-8.907 0.944,-12.294c-2.4,-5.613 -2.453,-2.2 -7,-4.922c-6.159,-3.688 -7.534,-6.113 -15.178,-0.516c-12.637,9.257 -23.119,20.732 -37.672,27.432c-17.843,8.209 -37.25,20.75 -48.719,38.287c-5.362,8.206 -7.637,18.728 -7.078,29.025c6.388,15.422 16.822,14.666 32.435,16.478c14.915,1.732 23.928,10.028 35.84,9.4c9.41,-6.087 17.01,-14.447 23.178,-24.319l0,0Z" style="fill:#2d2a21;fill-rule:nonzero;"/></svg>