<?xml version="1.0" standalone="no"?><!DOCTYPE svg PUBLIC "-//W3C//DTD SVG 1.1//EN" "http://www.w3.org/Graphics/SVG/1.1/DTD/svg11.dtd"><svg width="100%" height="100%" viewBox="0 0 555 638" version="1.1" xmlns="http://www.w3.org/2000/svg" xmlns:xlink="http://www.w3.org/1999/xlink" xml:space="preserve" style="fill-rule:evenodd;clip-rule:evenodd;stroke-linejoin:round;stroke-miterlimit:1.41421;"><path d="M121.041,587.355c20.553,-3.968 44.768,-9.272 59.631,-27.422c14.347,-17.512 15.603,-50.615 1.2,-71.062c-30.978,-43.969 -89.294,-76.694 -120.519,-22.925c-14.587,25.116 7.781,60.972 23.306,79.616c-8.496,3.568 -18.6,0.121 -25.668,8.3c-6.191,7.159 -6.816,19.95 -0.147,27.359c16.497,18.35 43.709,9.706 62.197,6.134Z" style="fill:#2d2a21;fill-rule:nonzero;"/><path d="M396.853,580.149c-20.653,-3.381 -44.994,-8 -60.228,-26.066c-14.703,-17.428 -16.634,-51.237 -2.619,-72.621c30.125,-45.982 87.828,-81.369 120.153,-27.422c15.107,25.193 -6.568,62.59 -21.734,82.162c8.575,3.381 18.622,-0.481 25.859,7.656c6.338,7.11 7.216,20.16 0.691,27.96c-16.144,19.309 -43.55,11.365 -62.122,8.331Z" style="fill:#2d2a21;fill-rule:nonzero;"/><path d="M258.297,349.13c-25.934,0.044 -55.534,-5.643 -80.666,3.175c-9.715,3.407 -13.528,10.15 -20.597,17.235c-8.634,8.65 -19.512,14.087 -25.85,25.215c-3.6,6.316 -4.337,13.494 -7.887,19.822c-5.006,8.925 -14.297,15.656 -17.303,25.8c-2.516,8.488 -1.794,21.26 -0.722,29.969c2.872,23.309 15.356,45.234 28.366,63.8c8.381,11.969 18.984,28.409 32.168,34.884c10.957,5.382 26.141,1.919 38.241,3.272c38.15,4.256 76.515,1.791 114.719,-0.222c28.522,-1.512 68.822,3.466 87.572,-23.122c16.065,-22.765 14.434,-57.568 8.74,-84.221c-6.34,-29.704 -21.8,-55.469 -39.89,-78.46c-24.997,-31.769 -80.469,-37.212 -116.891,-37.147Z" style="fill:#2d2a21;fill-rule:nonzero;"/><path d="M349.388,396.421c-21.804,-34.819 -83.357,-34.85 -117.132,-26.447c-26.925,6.7 -52.222,15.169 -67.165,41.619c-8.647,15.315 -10,30.684 -4.788,47.456c2.788,8.984 7.306,17.194 10.435,26.003c2.606,7.331 1.534,11.075 2.387,18.266c2.603,21.919 19.447,46.35 33.538,62.053c3.603,4.012 7.59,7.934 11.85,11.541c24.034,1.631 71.59,2.184 95.981,1.04c13.212,-11.147 22.919,-28.156 31.781,-42.665c22.875,-37.45 30.053,-95.85 3.113,-138.866Z" style="fill:#e5e5e5;fill-rule:nonzero;"/><path d="M168.019,454.374c2.084,-2.222 4.034,-4.469 5.734,-6.622c8.147,-10.322 32.556,-39.203 19.381,-52.181c-4.881,-4.819 -16.378,-4.234 -22.5,-5.744c-10.946,-2.709 -21.825,-15.415 -32.09,-19.587c-7.716,11.75 -7.716,44.593 -27.272,38.022c-27.906,-9.375 -21.028,-51.9 -44.138,-63.672c-14.578,-7.432 -31.262,-6.294 -32.225,12.087c-1.693,32.456 16,72.741 38.132,94.735c18.612,18.506 61.597,30.421 84.05,13.025c3.662,-2.844 7.481,-6.394 10.928,-10.063Z" style="fill:#454137;fill-rule:nonzero;"/><path d="M87.272,370.821c0,21.322 -19.535,38.594 -43.631,38.594c-24.103,0 -43.641,-17.272 -43.641,-38.594c0,-21.325 19.538,-38.597 43.641,-38.597c24.096,0 43.631,17.272 43.631,38.597Z" style="fill:#fff;fill-rule:nonzero;"/><path d="M323.85,425.499c0,0 31.122,68.534 -16.559,153.844l68.865,11.897c0,0 56.947,-105.597 -14.568,-194.416l-37.738,28.675Z" style="fill:#454137;fill-rule:nonzero;"/><path d="M297.897,576.012c-2.606,18.371 15.184,36.381 39.722,40.262c24.537,3.884 46.534,-7.85 49.14,-26.212c2.594,-18.354 -15.187,-36.385 -39.715,-40.26c-24.544,-3.875 -46.547,7.863 -49.147,26.21Z" style="fill:#fff;fill-rule:nonzero;"/><path d="M124.213,317.177c-7.782,11.256 -11.282,32.575 -6.879,45.375c4.188,12.188 13.854,23.738 23.013,32.325c20.241,18.991 47.3,30.188 74.1,35.485c39.297,7.781 80.512,13.525 116.506,-7.307c17.963,-10.393 33.438,-21.531 39.419,-42.625c15.716,-55.365 -34.878,-75.709 -78.456,-90.375c-41.016,-13.8 -104.894,-28.712 -141.838,2.85c-7.95,6.797 -19.837,15.55 -25.865,24.272Z" style="fill:#fe8b00;fill-rule:nonzero;"/><path d="M394.059,326.533c-2.081,-11.678 -11.331,-26.45 -21.734,-32.434c-26.503,-15.253 -39.85,-31.356 -54.444,-58.628c-3.031,-5.659 -5.731,-11.425 -6.881,-18.044c-2.244,-12.962 0.284,-25.815 0.594,-38.847c0.24,-10.122 0.847,-19.665 3.959,-29.443c7.675,-24.125 26.991,-39.241 43.613,-56.435c-23.207,-10.178 -48.957,-15.8 -74.71,-16.794c-20.281,-0.778 -43.1,-3.45 -65.472,-3.706l0.204,0.391l0.681,-0.11c11.047,21.216 25.272,41.194 25.769,66.504c0.203,10.259 -1.929,19.584 -4.579,29.356c-3.403,12.581 -4.64,25.625 -10.478,37.409c-2.975,6.019 -7.209,10.785 -11.712,15.347c-3.419,3.453 -6.719,6.619 -9.978,9.584l-0.419,0.4l-0.2,0.163c-17.297,15.584 -33.491,24.678 -58.284,30.581c-11.669,2.781 -24.732,14.319 -30.05,24.919c-6.026,12.006 -12.4,27.966 -23.319,36.022c-3.941,2.903 -10.378,4.975 -17.278,5.922c4.768,5.872 10.59,10.628 17.84,14.603c9.969,5.465 21.122,4.922 31.722,7.944c10.822,3.081 21.91,7.409 32.45,11.634c13.194,5.281 25.235,14.037 38.831,19.175c24.36,9.197 50.047,14.812 76.035,15.944c21.953,0.956 42.862,-4.319 64.647,-5.963c28.478,-2.153 54.115,-0.1 74.109,-17.34c-13.947,-2.585 -19.025,-37.572 -20.916,-48.154Z" style="fill:#fff;fill-rule:nonzero;"/><path d="M419.066,370.805c1.2,-1.253 2.378,-2.603 3.531,-4.028l0.512,-0.64c1.119,-1.407 2.21,-2.888 3.285,-4.469l0.484,-0.735c1.091,-1.659 2.172,-3.393 3.222,-5.246c9.394,-16.657 11.566,-32.632 14.159,-51.16c0.947,-6.787 1.632,-13.665 1.954,-20.497c0.134,-2.625 0.212,-5.247 0.225,-7.85c0.037,-12.425 -0.891,-22.406 0.818,-34.734c0.347,-2.503 0.582,-5.047 0.75,-7.609c0.019,-0.332 0.044,-0.66 0.063,-0.991c0.153,-2.625 0.231,-5.269 0.225,-7.928l0,-0.006c-0.25,-7.766 -0.641,-15.563 -1.788,-23.463c-7.647,-52.825 -42.803,-89.203 -87.34,-108.747c-16.622,17.194 -35.938,32.31 -43.613,56.435c-3.112,9.778 -3.719,19.321 -3.959,29.443c-0.31,13.032 -2.838,25.885 -0.594,38.847c1.15,6.619 3.85,12.385 6.881,18.044c14.594,27.272 27.941,43.375 54.444,58.628c10.403,5.984 19.653,20.756 21.734,32.434c1.891,10.582 6.969,45.569 20.916,48.154l0.031,-0.022c1.319,-1.135 2.6,-2.363 3.869,-3.672l0.191,-0.188Z" style="fill:#454137;fill-rule:nonzero;"/><path d="M96.619,322.768c10.919,-8.056 17.293,-24.016 23.319,-36.022c5.318,-10.6 18.381,-22.138 30.05,-24.919c24.793,-5.903 40.987,-14.997 58.284,-30.581l0.2,-0.163l0.419,-0.4c3.259,-2.965 6.559,-6.131 9.978,-9.584c4.503,-4.562 8.737,-9.328 11.712,-15.347c5.838,-11.784 7.075,-24.828 10.478,-37.409c2.65,-9.772 4.782,-19.097 4.579,-29.356c-0.497,-25.31 -14.722,-45.288 -25.769,-66.504l-0.681,0.11l-0.204,-0.391c-20.596,-0.231 -40.8,1.581 -58.268,8.894c-41.525,17.381 -62.853,48.169 -73.422,92.078c-0.547,2.291 -1.016,4.625 -1.416,6.988c-0.162,0.975 -0.281,1.981 -0.428,2.968c-0.216,1.419 -0.431,2.841 -0.612,4.282c-0.254,2.075 -0.472,4.168 -0.679,6.268c-0.131,1.313 -0.259,2.632 -0.378,3.953c-0.059,0.619 -0.115,1.238 -0.172,1.857c-0.481,5.322 -0.965,10.647 -1.65,15.856c-0.071,0.559 -0.153,1.112 -0.231,1.662c-0.231,1.629 -0.49,3.238 -0.775,4.835c-0.109,0.622 -0.219,1.25 -0.337,1.865c-0.407,2.094 -0.853,4.169 -1.391,6.197c-0.397,1.503 -0.825,2.994 -1.312,4.45c-2.81,8.366 -4.904,16.669 -7.744,25.013c-6.097,17.909 -7.544,34.3 -0.775,51.812c0.675,1.75 1.403,3.422 2.162,5.041c0.594,1.253 1.232,2.447 1.881,3.625c0.157,0.287 0.301,0.587 0.46,0.869c1.64,2.872 3.444,5.509 5.431,7.962l0.013,0.013c6.9,-0.947 13.337,-3.019 17.278,-5.922Z" style="fill:#454137;fill-rule:nonzero;"/><path d="M108.378,189.471c-3.834,26.419 17.294,53.219 46.431,51.566c36.457,-2.066 58.31,-12.735 62.144,-39.154c3.835,-26.415 -20.625,-48.49 -49.447,-52.675c-28.822,-4.178 -55.293,13.844 -59.128,40.263Z" style="fill:#fff;fill-rule:nonzero;"/><path d="M432.431,228.899c-1.222,26.672 -27.034,49 -55.331,41.881c-35.409,-8.912 -54.856,-23.512 -53.637,-50.178c1.215,-26.665 29.403,-43.725 58.496,-42.394c29.091,1.329 51.688,24.022 50.472,50.691Z" style="fill:#fff;fill-rule:nonzero;"/><path d="M399.319,128.427c15.559,-5.175 33.575,-3.978 49.756,-4.29c27.656,-0.525 53.706,-13.372 81.981,-11.213c4.603,0.353 8.76,1.759 12.775,3.513c5.666,-6.075 19.485,-22.822 4.157,-25.847c-5.907,-1.169 -12.822,0.634 -18.469,0.662c-7.435,0.031 -15.075,-1.306 -22.381,-2.797c-1.654,-0.334 -3.313,-0.668 -4.969,-1c-16.869,-3.384 -34.147,-6.678 -50.81,-10.897c-18.787,-4.753 -35.456,-6.15 -54.64,-3.728c-10.91,1.378 -23.016,6.085 -31.95,12.307c-13.453,9.368 -17.513,38.768 -8.828,52.44c5.068,7.978 15.112,12.528 24.153,13.825c0.55,0.078 1.059,0.169 1.594,0.253c-0.425,-1.225 -0.679,-2.537 -0.588,-4.118c0.563,-9.516 9.834,-16.325 18.219,-19.11Z" style="fill:#454137;fill-rule:nonzero;"/><path d="M405.825,161.062c23.816,17.518 49.391,-2.466 72.106,-10.125c7.691,-2.594 15.047,-6.541 22.469,-9.947c15.825,-7.285 30.909,-11.238 43.147,-24.244l0.284,-0.309c-4.015,-1.754 -8.172,-3.16 -12.775,-3.513c-28.275,-2.159 -54.325,10.688 -81.981,11.213c-16.181,0.312 -34.197,-0.885 -49.756,4.29c-8.385,2.785 -17.656,9.594 -18.219,19.11c-0.091,1.581 0.163,2.893 0.588,4.118c9.25,1.444 16.265,3.616 24.137,9.407Z" style="fill:#2d2a21;fill-rule:nonzero;"/><path d="M177.266,88.971c-12.663,-10.419 -29.907,-15.781 -44.897,-21.881c-25.616,-10.428 -45.31,-31.782 -72.475,-39.919c-4.425,-1.325 -8.803,-1.516 -13.185,-1.319c-3.103,-7.706 -9.978,-28.297 5.413,-25.612c5.928,1.034 11.737,5.2 16.994,7.253c6.925,2.703 14.54,4.2 21.893,5.437c1.666,0.282 3.332,0.563 4.997,0.85c16.957,2.9 34.266,6.041 51.332,8.088c19.24,2.312 35.3,7 52.331,16.153c9.684,5.209 19.29,13.947 25.39,22.966c9.191,13.578 2.416,42.475 -10.603,52.109c-7.6,5.628 -18.606,6.262 -27.506,4.222c-0.541,-0.122 -1.05,-0.219 -1.578,-0.335c0.834,-0.987 1.541,-2.125 2.025,-3.631c2.897,-9.081 -3.309,-18.769 -10.131,-24.381Z" style="fill:#454137;fill-rule:nonzero;"/><path d="M159.463,117.087c-28.516,7.79 -45.207,-20.05 -63.65,-35.357c-6.247,-5.187 -11.691,-11.509 -17.391,-17.359c-12.156,-12.481 -24.809,-21.594 -31.556,-38.128l-0.157,-0.391c4.382,-0.197 8.76,-0.006 13.185,1.319c27.165,8.137 46.859,29.491 72.475,39.919c14.99,6.1 32.234,11.462 44.897,21.881c6.822,5.612 13.028,15.3 10.131,24.381c-0.484,1.506 -1.191,2.644 -2.025,3.631c-9.15,-1.978 -16.481,-2.471 -25.909,0.104Z" style="fill:#2d2a21;fill-rule:nonzero;"/><path d="M306.822,264.812c-3.688,14.775 -24.263,21.706 -45.944,15.465c-21.675,-6.231 -36.259,-23.278 -32.562,-38.053c3.687,-14.781 24.262,-21.703 45.931,-15.469c21.678,6.238 36.266,23.278 32.575,38.057Z" style="fill:#221e1f;fill-rule:nonzero;"/><path d="M263.528,347.015c10.097,-0.013 22.65,5.087 31.678,3.131c7.988,-1.728 21.91,-10.494 21.228,-21.028c-7.287,-3.347 -18.018,-1.091 -25.903,-2.331c-9.356,-1.469 -15.24,-2.663 -23.018,-8.741c-6.535,-5.106 -10.319,-11.353 -18.879,-11.469c-11.871,-0.159 -21.015,6.316 -33.193,5.528c9.059,19.013 28.331,34.938 48.087,34.91Z" style="fill:#922f42;fill-rule:nonzero;"/><path d="M300.663,330.23c-4.56,0 -9.4,-0.412 -14.594,-1.222c-7.891,-1.234 -14.685,-2.975 -22.2,-7.478c-1.635,-0.981 -3.088,-1.99 -4.472,-2.95c-3.753,-2.597 -6.359,-4.325 -10.681,-4.24c-2.669,0.047 -5.444,0.728 -8.382,1.447c-4.375,1.075 -9.337,2.29 -14.756,1.475c-6.972,-1.05 -14.39,-5.454 -20.353,-8.994l-2.066,-1.222c-14.303,-8.369 -23.162,-22.65 -27.087,-43.653c-0.484,-2.585 1.222,-5.072 3.806,-5.556c2.597,-0.482 5.075,1.225 5.556,3.809c3.388,18.125 10.763,30.287 22.538,37.178l2.116,1.253c5.25,3.113 11.778,6.991 16.906,7.763c3.556,0.531 7.206,-0.36 11.072,-1.307c3.322,-0.812 6.756,-1.653 10.484,-1.715c7.6,-0.081 11.975,2.956 16.272,5.934c1.228,0.847 2.509,1.738 3.956,2.61c5.431,3.256 10.516,4.946 18.763,6.234c15.915,2.487 27.793,0.775 38.55,-5.525c11.297,-6.625 16.675,-13.3 17.425,-21.641c0.237,-2.618 2.537,-4.556 5.168,-4.315c2.625,0.237 4.554,2.55 4.322,5.172c-1.375,15.187 -13.268,23.825 -22.1,29.003c-9.137,5.356 -18.812,7.94 -30.243,7.94Z" style="fill:#221e1f;fill-rule:nonzero;"/><path d="M255.153,314.34c-1.322,0 -2.64,-0.55 -3.581,-1.619c-1.741,-1.975 -1.544,-4.984 0.434,-6.725c2.769,-2.434 3.288,-10.478 3.703,-16.944c0.378,-5.875 0.738,-11.431 2.479,-15.697c0.987,-2.434 3.765,-3.603 6.206,-2.612c2.437,0.994 3.609,3.772 2.612,6.206c-1.153,2.834 -1.475,7.856 -1.787,12.716c-0.585,9.068 -1.191,18.45 -6.928,23.49c-0.903,0.794 -2.025,1.185 -3.138,1.185Z" style="fill:#221e1f;fill-rule:nonzero;"/><path d="M379.447,218.718c18.456,3.49 31.981,18.194 33.85,34.99c1.347,-2.881 2.381,-5.95 2.916,-9.237c3.381,-20.559 -11.669,-40.594 -33.638,-44.747c-21.966,-4.162 -42.516,9.134 -45.903,29.691c-0.531,3.29 -0.56,6.556 -0.206,9.756c7.115,-15.103 24.531,-23.947 42.981,-20.453Z" style="fill:#221e1f;fill-rule:nonzero;"/><path d="M163.909,187.868c18.047,2.769 31.688,16.64 34.06,32.962c1.219,-2.853 2.112,-5.884 2.528,-9.109c2.603,-20.175 -12.706,-39.197 -34.184,-42.484c-21.485,-3.304 -41.016,10.381 -43.616,30.546c-0.409,3.229 -0.334,6.416 0.122,9.522c6.415,-14.978 23.037,-24.203 41.09,-21.437Z" style="fill:#221e1f;fill-rule:nonzero;"/></svg>