<?xml version="1.0" standalone="no"?><!DOCTYPE svg PUBLIC "-//W3C//DTD SVG 1.1//EN" "http://www.w3.org/Graphics/SVG/1.1/DTD/svg11.dtd"><svg width="100%" height="100%" viewBox="0 0 477 614" version="1.1" xmlns="http://www.w3.org/2000/svg" xmlns:xlink="http://www.w3.org/1999/xlink" xml:space="preserve" style="fill-rule:evenodd;clip-rule:evenodd;stroke-linejoin:round;stroke-miterlimit:1.41421;"><path d="M77.659,296.372c-0.693,-7.325 -3.921,-22.235 -13.309,-12.86c-3.419,3.403 -3.659,8.422 -8.181,10.841c-5.703,3.05 -16.36,3.256 -22.535,2.731c-9.525,-0.806 -19.284,-5.503 -27.5,-9.525c-4.521,11.069 1.35,31.538 7.854,40.113c3.359,4.425 6.962,8.381 12.156,10.387c3.762,1.45 7.653,2.21 11.659,2.769c6.085,0.841 10.688,-2.25 16.419,-3.713c5.281,-1.35 8.509,-2.318 12.572,-6.903c7.7,-8.681 11.965,-22.193 10.865,-33.84Z" style="fill:#2d2a21;fill-rule:nonzero;"/><path d="M346.653,462.834c-3.04,-25.141 -0.65,-61.731 -28.162,-72.772c-44.372,-17.806 -35.747,39.291 -23.56,63.06c5.069,9.887 5.453,19.472 2.51,30.568c-2.36,8.891 -12.703,21.229 -4.316,29.613c5.963,5.953 21.209,6.019 28.469,4.466c29.84,-6.401 28.337,-27.85 25.059,-54.935Z" style="fill:#2d2a21;fill-rule:nonzero;"/><path d="M83.847,447.612c6.294,-29.025 26.897,-89.012 -15.822,-92.928c-33.878,-3.106 -36.278,65.322 -38.216,89.431c-1.306,16.319 -3.759,32.994 0,49.044c2.472,10.553 5.45,20.8 13.844,27.566c5.01,4.034 25.55,13.59 31.688,8.968c6.422,-4.837 2.172,-27.643 2.506,-35.087c0.712,-15.872 2.606,-31.306 6,-46.994Z" style="fill:#2d2a21;fill-rule:nonzero;"/><path d="M236.3,367.284c-33.216,3.225 -64.584,9.356 -92.897,17.644c-3.837,2.312 -7.634,4.687 -11.25,7.306c-12.894,9.347 -26.447,17.481 -38.419,28.506c-4.846,4.469 -9.262,9.191 -13.709,14c6.591,8.288 13.531,16.178 22.369,22.332c8.784,6.112 16.759,8.071 26.79,9.606c12.666,1.934 24.425,7.316 37.029,9.619c27.771,5.075 56.306,1.228 83.99,-2.666c36.991,-5.206 72.66,-17.016 102.906,-42.003c13.169,-10.881 24.125,-25.175 37.907,-35.109c6.112,-4.413 10.772,-9.219 14.756,-14.835c-44.547,-14.75 -104.4,-20.716 -169.472,-14.4Z" style="fill:#e5e5e5;fill-rule:nonzero;"/><path d="M340.356,212.072c-54.115,-27.4 -93.14,-18.46 -149.697,-5.488c-28.128,6.453 -61.109,12.888 -84.806,31.222c-18.14,14.041 -39.469,35.591 -51.59,56.291c-12.016,20.534 -9.225,47.543 -12.107,71.103c-1.031,8.462 0.1,15.719 2.635,22.265c3.462,8.944 9.553,16.56 16.437,24.06c1.703,1.847 3.338,3.74 4.938,5.662c4.79,5.753 9.24,11.747 13.859,17.553c4.447,-4.809 8.863,-9.531 13.709,-14c11.972,-11.025 25.525,-19.159 38.419,-28.506c3.616,-2.619 7.413,-4.994 11.25,-7.306c28.313,-8.288 59.681,-14.419 92.897,-17.644c65.072,-6.316 124.925,-0.35 169.472,14.4c3.544,-4.984 6.55,-10.597 9.525,-17.219c24.869,-55.268 -23.85,-126.496 -74.941,-152.393Z" style="fill:#2d2a21;fill-rule:nonzero;"/><path d="M454.225,450.394c9.266,33.009 17.294,93.612 -19.987,106.609c-14.95,5.212 -41.063,2.975 -50.829,-13.106c-10.846,-17.857 -0.115,-38.294 0.107,-57.313c0.203,-17.384 -4.532,-37.956 -8.66,-54.597c-8.5,-34.281 -33.15,-125.74 13.45,-132.222c46.578,-6.468 55.566,113.766 65.919,150.629Z" style="fill:#454137;fill-rule:nonzero;"/><path d="M461.3,535.553c0,17.719 -21.144,32.084 -47.222,32.084c-26.069,0 -47.212,-14.365 -47.212,-32.084c0,-17.719 21.143,-32.084 47.212,-32.084c26.078,0 47.222,14.365 47.222,32.084Z" style="fill:#fff;fill-rule:nonzero;"/><path d="M61.247,470.637c-9.375,29.441 -17.488,83.503 20.206,95.097c15.122,4.647 41.525,2.653 51.4,-11.691c10.969,-15.928 0.122,-34.162 -0.103,-51.124c-0.206,-15.51 4.581,-33.863 8.756,-48.704c8.597,-30.581 33.641,-76.522 -13.484,-82.303c-47.1,-5.775 -56.309,65.838 -66.775,98.725Z" style="fill:#454137;fill-rule:nonzero;"/><path d="M141.603,561.693c0,17.722 -21.14,32.088 -47.212,32.088c-26.078,0 -47.219,-14.366 -47.219,-32.088c0,-17.718 21.141,-32.081 47.219,-32.081c26.072,0 47.212,14.363 47.212,32.081Z" style="fill:#fff;fill-rule:nonzero;"/><path d="M141.134,354.819c-4.043,12.474 -1.387,33.006 6.179,43.54c7.196,10.031 19.246,17.969 30.018,23.331c23.803,11.857 51.722,14.685 77.775,12.172c38.21,-3.681 77.616,-9.753 104.916,-38.781c13.625,-14.484 24.762,-28.969 24.447,-49.975c-0.819,-55.137 -52.853,-59.878 -96.885,-61.347c-41.443,-1.375 -104.175,2.528 -129.393,41.663c-5.425,8.428 -13.928,19.737 -17.057,29.397Z" style="fill:#fe8b00;fill-rule:nonzero;"/><path d="M391.372,289.122c-5.128,-10.144 -17.681,-21.157 -28.878,-23.785c-28.522,-6.703 -45.203,-17.809 -66.106,-38.822c-4.338,-4.356 -8.407,-8.909 -11.282,-14.665c-5.628,-11.275 -6.847,-23.772 -10.15,-35.816c-2.565,-9.356 -4.637,-18.278 -4.468,-28.112c0.396,-24.253 13.968,-43.441 24.487,-63.8c-24.1,-2.957 -49.278,-1.025 -73.187,5.153c-18.825,4.872 -40.51,8.697 -61.113,14.622l0.294,0.3l0.6,-0.285c15.975,16.428 34.531,30.85 41.956,53.941c3.006,9.362 3.622,18.503 3.878,28.203c0.338,12.481 2.794,24.794 0.678,37.219c-1.068,6.344 -3.647,11.881 -6.525,17.309c-2.184,4.106 -4.34,7.922 -6.515,11.541l-0.275,0.481l-0.138,0.206c-11.584,19.063 -23.947,31.869 -45.075,44.113c-9.947,5.762 -18.756,19.947 -20.722,31.14c-2.225,12.682 -3.681,29.082 -11.484,39.482c-2.819,3.75 -8.153,7.425 -14.228,10.193c5.994,4.072 12.647,6.838 20.394,8.488c10.653,2.272 20.74,-1.297 31.3,-1.444c10.784,-0.147 22.146,0.775 32.984,1.75c13.566,1.213 27.028,5.935 40.919,6.906c24.89,1.735 50.012,-0.181 74.172,-6.3c20.412,-5.162 38.15,-15.759 57.693,-23.265c25.544,-9.816 49.638,-14.988 63.247,-36.316c-13.519,1.469 -27.809,-29.244 -32.456,-38.437Z" style="fill:#fff;fill-rule:nonzero;"/><path d="M426.509,322.868c0.757,-1.478 1.466,-3.04 2.132,-4.665l0.297,-0.731c0.637,-1.597 1.234,-3.263 1.781,-5.007l0.24,-0.803c0.547,-1.828 1.066,-3.712 1.516,-5.706c4.034,-17.872 1.634,-33.131 -1.091,-50.853c-1,-6.488 -2.262,-12.991 -3.843,-19.347c-0.6,-2.447 -1.25,-4.875 -1.96,-7.266c-3.384,-11.415 -6.984,-20.318 -8.812,-32.106c-0.369,-2.387 -0.856,-4.791 -1.406,-7.187c-0.069,-0.31 -0.135,-0.619 -0.21,-0.925c-0.581,-2.453 -1.24,-4.903 -1.981,-7.338l0,-0.009c-2.369,-7.06 -4.869,-14.11 -8.097,-21.044c-21.562,-46.375 -63.841,-70.081 -110.1,-75.759c-10.519,20.359 -24.091,39.547 -24.487,63.8c-0.169,9.834 1.903,18.756 4.468,28.112c3.303,12.044 4.522,24.541 10.15,35.816c2.875,5.756 6.944,10.309 11.282,14.665c20.903,21.013 37.584,32.119 66.106,38.822c11.197,2.628 23.75,13.641 28.878,23.785c4.647,9.193 18.937,39.906 32.456,38.437l0.016,-0.028c0.897,-1.406 1.744,-2.887 2.547,-4.438l0.118,-0.225Z" style="fill:#454137;fill-rule:nonzero;"/><path d="M117.347,367.547c7.803,-10.4 9.259,-26.8 11.484,-39.482c1.966,-11.193 10.775,-25.378 20.722,-31.14c21.128,-12.244 33.491,-25.05 45.075,-44.113l0.138,-0.206l0.275,-0.481c2.175,-3.619 4.331,-7.435 6.515,-11.541c2.878,-5.428 5.457,-10.965 6.525,-17.309c2.116,-12.425 -0.34,-24.738 -0.678,-37.219c-0.256,-9.7 -0.872,-18.841 -3.878,-28.203c-7.425,-23.091 -25.981,-37.513 -41.956,-53.941l-0.6,0.285l-0.294,-0.3c-18.966,5.456 -37.006,12.681 -51.031,24.203c-33.325,27.381 -44.422,61.506 -42.038,104.718c0.128,2.251 0.344,4.522 0.625,6.804c0.122,0.94 0.285,1.893 0.425,2.84c0.194,1.366 0.385,2.728 0.616,4.1c0.341,1.972 0.716,3.956 1.103,5.938c0.241,1.243 0.488,2.487 0.741,3.731c0.118,0.584 0.234,1.169 0.356,1.756c1.022,5.013 2.044,10.032 2.853,15.007c0.084,0.531 0.159,1.059 0.241,1.587c0.237,1.556 0.44,3.106 0.622,4.65c0.068,0.603 0.143,1.206 0.203,1.806c0.203,2.035 0.365,4.063 0.428,6.069c0.05,1.491 0.069,2.972 0.019,4.444c-0.275,8.453 0.087,16.65 -0.219,25.09c-0.666,18.113 2.519,33.557 13.55,47.766c1.103,1.422 2.231,2.753 3.375,4.028c0.89,0.991 1.803,1.909 2.725,2.813l0.659,0.672c2.294,2.181 4.678,4.109 7.178,5.809l0.013,0.012c6.075,-2.768 11.409,-6.443 14.228,-10.193Z" style="fill:#454137;fill-rule:nonzero;"/><path d="M125.9,55.312c-13.134,-13.387 -56.947,-67.75 -79.503,-52.703c-11.484,7.669 -3.685,32.85 -5.128,46.188c-4.344,40.084 -4.997,61.918 12.784,84.44c6.231,7.897 14.735,15.878 26.144,24.766c5.734,4.466 10.678,6.481 15.319,7.137c11.806,1.669 21.509,-5.812 36.525,-6.228c15.712,-0.44 26.031,1.219 33.743,-13.584c1.079,-2.063 2.1,-4.438 3.085,-7.197c13.634,-38.309 -21.166,-60.569 -42.969,-82.819Z" style="fill:#454137;fill-rule:nonzero;"/><path d="M74.547,138.89c-13.153,-25.809 -16.059,-51.568 -16.297,-80.303c-0.028,-3.272 -1.597,-9.081 0.141,-12.328c2.872,-5.381 2.628,-1.978 7.397,-4.294c6.468,-3.134 8.04,-5.431 15.165,0.813c11.788,10.328 21.219,22.675 35.131,30.619c17.054,9.737 35.297,23.928 45.191,42.4c4.625,8.643 5.966,19.322 4.509,29.531c-7.712,14.803 -18.031,13.144 -33.743,13.584c-15.016,0.416 -24.719,7.897 -36.525,6.228c-8.844,-6.884 -15.688,-15.875 -20.969,-26.25Z" style="fill:#2d2a21;fill-rule:nonzero;"/><path d="M91.444,241.972c3.753,25.3 30.525,44.084 56.812,34.543c32.888,-11.931 50.01,-27.737 46.257,-53.04c-3.757,-25.303 -32.282,-38.825 -59.885,-34.732c-27.603,4.094 -46.937,27.926 -43.184,53.229Z" style="fill:#fff;fill-rule:nonzero;"/><path d="M175.381,226.637c2.478,16.725 -8.368,32.191 -24.222,34.544c-15.862,2.353 -30.725,-9.3 -33.206,-26.025c-2.481,-16.728 8.36,-32.197 24.222,-34.547c15.853,-2.353 30.725,9.3 33.206,26.028Z" style="fill:#221e1f;fill-rule:nonzero;"/><path d="M398.972,185.375l-33.456,4.697c1.765,3.221 3.028,6.809 3.606,10.687c2.481,16.728 -8.366,32.194 -24.222,34.547c-15.862,2.35 -30.722,-9.3 -33.203,-26.028c-0.6,-4.034 -0.406,-7.991 0.428,-11.713l-14.781,2.075c-0.156,2.482 -0.122,5.004 0.259,7.582c3.753,25.3 24.725,35.459 59.666,37.328c27.919,1.497 48.084,-24.244 44.331,-49.547c-0.5,-3.369 -1.406,-6.578 -2.628,-9.628Z" style="fill:#fff;fill-rule:nonzero;"/><path d="M311.697,209.278c2.481,16.728 17.341,28.378 33.203,26.028c15.856,-2.353 26.703,-17.819 24.222,-34.547c-0.578,-3.878 -1.841,-7.466 -3.606,-10.687l-53.391,7.493c-0.834,3.722 -1.028,7.679 -0.428,11.713Z" style="fill:#221e1f;fill-rule:nonzero;"/><path d="M294.825,243.884c2.556,14.406 -13.547,29.166 -35.953,32.944c-22.406,3.784 -42.641,-4.838 -45.191,-19.25c-2.553,-14.409 13.547,-29.16 35.95,-32.941c22.407,-3.781 42.644,4.831 45.194,19.247Z" style="fill:#221e1f;fill-rule:nonzero;"/><path d="M277.209,326.665c-2.031,0 -3.928,-1.275 -4.625,-3.303c-1.278,-3.715 -1.443,-8.647 -1.618,-13.872c-0.135,-4.128 -0.275,-8.4 -1.016,-10.881c-3.553,-11.909 -7.716,-18.484 -9.406,-19.175c-2.594,-0.753 -4.066,-3.462 -3.316,-6.053c0.753,-2.594 3.478,-4.084 6.078,-3.331c7.535,2.184 12.866,15.215 16.016,25.762c1.106,3.691 1.266,8.603 1.422,13.353c0.137,4.072 0.29,8.691 1.09,11.016c0.879,2.556 -0.478,5.337 -3.034,6.216c-0.528,0.184 -1.062,0.268 -1.591,0.268Z" style="fill:#221e1f;fill-rule:nonzero;"/><path d="M240.044,345.375c-15.222,0 -36.078,-2.853 -44.288,-13.832c-3.556,-4.749 -6.259,-12.987 1.022,-25.256c1.381,-2.318 4.378,-3.087 6.703,-1.709c2.325,1.381 3.088,4.381 1.713,6.703c-5.478,9.225 -2.563,13.122 -1.603,14.403c7.931,10.603 41.075,11.113 49.847,8.872c5.568,-1.416 9.656,-4.756 14.387,-8.622c3.241,-2.65 6.597,-5.394 10.709,-7.725c3.038,-1.722 7.45,-4.95 12.566,-8.687c18.669,-13.653 44.238,-32.35 59.756,-20.897c2.172,1.606 2.635,4.668 1.028,6.84c-1.606,2.175 -4.668,2.635 -6.84,1.032c-9.722,-7.188 -33.794,10.412 -48.172,20.922c-5.356,3.918 -9.981,7.3 -13.509,9.296c-3.397,1.928 -6.288,4.291 -9.35,6.794c-5.157,4.216 -10.488,8.575 -18.16,10.528c-2.787,0.71 -8.684,1.338 -15.809,1.338Z" style="fill:#221e1f;fill-rule:nonzero;"/><path d="M341.659,105.856c12.857,-9.031 29.722,-12.897 44.491,-17.634c25.234,-8.094 45.606,-27.06 72.153,-32.857c4.325,-0.943 8.522,-0.8 12.694,-0.297c3.522,-7.137 11.594,-26.306 -3.3,-24.865c-5.744,0.553 -11.597,4.112 -16.769,5.691c-6.815,2.078 -14.2,2.953 -21.315,3.599c-1.61,0.147 -3.219,0.294 -4.838,0.444c-16.409,1.541 -33.175,3.275 -49.634,3.991c-18.544,0.806 -34.232,4.112 -51.172,11.619c-9.631,4.268 -19.444,11.918 -25.931,20.087c-9.769,12.303 -5.404,40.403 6.331,50.56c6.85,5.928 17.322,7.337 25.972,6.04c0.525,-0.078 1.022,-0.134 1.534,-0.206c-0.728,-1.006 -1.319,-2.141 -1.672,-3.616c-2.103,-8.887 4.531,-17.69 11.456,-22.556Z" style="fill:#454137;fill-rule:nonzero;"/><path d="M356.622,134.015c26.678,9.522 44.647,-15.856 63.387,-29.14c6.35,-4.5 12.013,-10.144 17.882,-15.316c12.522,-11.037 25.275,-18.825 32.931,-34.131l0.175,-0.36c-4.172,-0.503 -8.369,-0.646 -12.694,0.297c-26.547,5.797 -46.919,24.763 -72.153,32.857c-14.769,4.737 -31.634,8.603 -44.491,17.634c-6.925,4.866 -13.559,13.669 -11.456,22.556c0.353,1.475 0.944,2.61 1.672,3.616c8.884,-1.222 15.925,-1.16 24.747,1.987Z" style="fill:#2d2a21;fill-rule:nonzero;"/></svg>