<?xml version="1.0" standalone="no"?><!DOCTYPE svg PUBLIC "-//W3C//DTD SVG 1.1//EN" "http://www.w3.org/Graphics/SVG/1.1/DTD/svg11.dtd"><svg width="100%" height="100%" viewBox="0 0 536 618" version="1.1" xmlns="http://www.w3.org/2000/svg" xmlns:xlink="http://www.w3.org/1999/xlink" xml:space="preserve" style="fill-rule:evenodd;clip-rule:evenodd;stroke-linejoin:round;stroke-miterlimit:1.41421;"><path d="M80.157,436.579c0.059,-7.771 -1.832,-24.187 -13.116,-17.634c-4.103,2.372 -4.922,7.456 -10.128,8.456c-6.556,1.253 -18.219,-2.056 -24.903,-4.631c-10.313,-3.978 -20.454,-12.037 -28.979,-18.894c-6.159,9.903 -1.996,32.919 4.157,43.894c3.184,5.669 6.678,10.934 12.134,14.716c3.947,2.731 8.116,4.803 12.431,6.7c6.544,2.878 11.916,1.215 18.335,1.603c5.915,0.359 9.544,0.425 14.487,-2.953c9.363,-6.397 15.503,-18.903 15.582,-31.257l0,0Z" style="fill:#2d2a21;fill-rule:nonzero;"/><path d="M171.288,521.651c-27.516,1.435 -48.11,-28.978 -53.303,-55.615c-4.853,-24.894 -4.675,-53.96 14.087,-73.132c16.963,-17.328 33.703,-35.353 58.672,-40.531c16.7,-3.462 33.863,-3.34 49.634,2.278c24.316,8.66 43.244,25.069 47.272,51.585c4.541,29.918 -7.025,55.584 -19.915,81.206c-5.794,11.519 -11.719,17.628 -2.913,27.765c8.081,9.304 23.681,9.422 23.809,25.366c-16.703,5.988 -63.053,11.185 -79.784,4.181c-23.278,-9.746 7.959,-44.028 13.563,-60.721c-1.094,10.656 -22.638,26.078 -31.066,31.099c-6.984,4.163 -13.703,6.188 -20.056,6.519l0,0Z" style="fill:#2d2a21;fill-rule:nonzero;"/><path d="M388.981,542.279l-52.465,-1.125l-0.947,-196.984l52.453,1.125l0.959,196.984Z" style="fill:#2d2a21;fill-rule:nonzero;"/><path d="M335.288,542.011c0.312,15.531 18.828,27.956 41.347,27.725c22.534,-0.238 40.531,-13.025 40.218,-28.56c-0.312,-15.544 -18.825,-27.959 -41.353,-27.728c-22.531,0.231 -40.528,13.019 -40.212,28.563l0,0Z" style="fill:#e5e5e5;fill-rule:nonzero;"/><path d="M170.419,445.27c-0.75,30.416 21.309,55.653 49.281,56.372c27.966,0.712 51.256,-23.36 52.013,-53.781c0.759,-30.416 -21.307,-55.663 -49.272,-56.375c-27.966,-0.716 -51.269,23.356 -52.022,53.784l0,0Z" style="fill:#d5844c;fill-rule:nonzero;"/><path d="M240.16,417.47c40.14,-25.334 80.631,-43.9 117.468,-55.144c-0.543,-7.275 -1.9,-14.834 -4.193,-22.778c-9.425,-32.669 -21.516,-56.931 -44.666,-82.597c-36.981,-41.015 -100.391,-33.568 -139.381,1.078c-18.097,16.082 -30.541,31.713 -40.332,53.557c-9.728,21.7 -15.028,40.925 -33.153,56.947c-17.953,15.865 -41.059,35.731 -52.278,59.446c-12.806,27.082 -6.909,50.3 7.888,68.863c14.231,17.866 36.712,31.416 58.697,39.941c26.787,-39.888 72.381,-82.985 129.95,-119.313l0,0Z" style="fill:#454137;fill-rule:nonzero;"/><path d="M184.282,533.526c25.64,-14.381 55.609,-21.847 79.29,-39.706c21.113,-15.919 43.175,-33.625 61.522,-53.081c22.903,-24.291 34.731,-48.891 32.534,-78.413c-36.837,11.244 -77.328,29.81 -117.468,55.144c-57.569,36.328 -103.163,79.425 -129.95,119.313c7.312,2.834 36.921,-8.7 43.806,-7.003c21.387,5.272 12.169,13.893 30.266,3.746l0,0Z" style="fill:#e5e5e5;fill-rule:nonzero;"/><path d="M308.8,562.126l-52.472,-0.315l1.122,-196.503l52.478,0.312l-1.128,196.506l0,0Z" style="fill:#454137;fill-rule:nonzero;"/><path d="M252.122,567.145c0.341,15.569 18.847,27.778 41.322,27.272c22.484,-0.513 40.416,-13.55 40.081,-29.122c-0.344,-15.572 -18.844,-27.772 -41.315,-27.266c-22.485,0.51 -40.432,13.544 -40.088,29.116l0,0Z" style="fill:#fff;fill-rule:nonzero;"/><path d="M190.513,230.536l23.906,-4.088c-3.844,12.334 -6.353,21.931 -6.353,35.559c0,37.935 9.734,78.663 38.362,103.057c16.332,13.918 34.525,24.903 56.257,24.797c18.009,-0.091 35.662,-2.228 51.859,8.2c15.094,9.725 10.725,19.275 -5.784,22.962c-19.922,4.447 -44.019,2.275 -63.532,-2.565c-19.643,-4.875 -38.875,-12.344 -55.718,-23.847c-34.132,-23.297 -52.241,-60.679 -54.763,-101.863c-1.384,-22.522 5.744,-43.753 15.766,-62.212l0,0Z" style="fill:#fe8b00;fill-rule:nonzero;"/><path d="M106.65,566.036c-27.509,1.628 -48.309,-28.638 -53.687,-55.238c-5.016,-24.862 -5.041,-53.925 13.593,-73.228c16.841,-17.447 33.46,-35.591 58.401,-40.947c16.665,-3.578 33.831,-3.575 49.643,1.931c24.372,8.488 43.41,24.763 47.622,51.266c3.263,20.55 -1.534,40.603 -9.278,59.541c-6.478,15.846 -19.5,30.212 -24.384,46.168c11.462,-1.518 27.772,-0.343 32.312,12.913c10.303,30.059 -64.819,25.231 -76.509,20.434c-16.984,-6.973 -5.199,-27.134 4.598,-44.047c3.669,-6.334 7.059,-12.212 8.555,-16.772c-1.025,10.666 -22.459,26.238 -30.859,31.319c-6.957,4.213 -13.66,6.285 -20.007,6.66l0,0Z" style="fill:#454137;fill-rule:nonzero;"/><path d="M436.256,67.414c11.522,-11.738 49.779,-59.232 70.313,-46.657c10.453,6.407 3.944,28.204 5.5,39.657c4.675,34.415 5.687,53.19 -9.838,72.862c-5.431,6.897 -12.909,13.906 -22.968,21.735c-5.06,3.943 -9.46,5.759 -13.61,6.396c-10.562,1.629 -19.412,-4.643 -32.897,-4.756c-14.103,-0.122 -23.334,1.478 -30.54,-11.131c-1.006,-1.756 -1.969,-3.784 -2.906,-6.138c-12.972,-32.737 17.818,-52.462 36.946,-71.968l0,0Z" style="fill:#454137;fill-rule:nonzero;"/><path d="M333.422,333.907c11.522,-15.737 28.178,-25.678 43.247,-37.415c17.212,-13.409 21.722,-33.094 19.434,-54.378c-1.8,-16.807 -9.265,-41.313 -16.418,-56.906c-7.91,-17.254 -21.357,-29.666 -36.122,-40.844c-6.441,-4.875 -14.713,-13.044 -22.35,-15.66c-5.075,-1.737 -14.391,-1.034 -22.757,-1.5l0.791,-0.218c12.466,-3.322 25.172,-2.691 38.697,-0.563c16.75,2.625 22.006,2.447 35.834,-2.978c1.938,-0.762 3.897,-1.45 5.875,-2.069l0.504,-0.14c1.824,-0.557 3.659,-1.069 5.515,-1.516l0.072,-0.016c4.019,-0.956 8.097,-1.65 12.216,-2.1l0.031,0.025c1.022,0.785 2.05,1.569 3.022,2.378c16.372,13.579 26.853,26.729 34.812,47.3c3.819,9.869 6.753,19.044 7.238,29.432c0.44,9.453 -1.591,20.006 3.278,28.65c16.453,29.181 58.031,23.131 83.025,37.978l0.006,0.015c0.7,1.769 1.341,3.572 1.925,5.401l0.138,0.465c0.528,1.688 1,3.4 1.422,5.138c0.14,0.612 0.253,1.237 0.384,1.859c0.294,1.353 0.578,2.706 0.803,4.088c0.328,2.1 0.6,4.231 0.769,6.393c2.875,36.897 2.397,73.41 -34.772,94.075c-6.119,6.644 -14.988,10.347 -25.216,15.7c-42.503,22.257 -94.481,18.457 -139.287,13.991c-2.447,-0.241 -4.925,-0.531 -7.425,-0.869c-1.447,-0.194 -2.913,-0.434 -4.372,-0.659c-1.028,-0.16 -2.047,-0.3 -3.081,-0.475c-1.991,-0.335 -4,-0.719 -6.007,-1.119c-0.49,-0.094 -0.978,-0.178 -1.465,-0.278c-2.303,-0.475 -4.622,-0.994 -6.941,-1.553l-0.547,-0.125c-2.49,-0.607 -4.984,-1.26 -7.472,-1.966l-0.018,-0.003c-7.585,-2.153 -15.132,-4.775 -22.475,-7.922l-0.022,-0.009c7.569,-3.232 15.49,-5.969 20.572,-9.616c18.068,-12.95 24.153,-34.25 37.137,-51.991l0,0Z" style="fill:#fff;fill-rule:nonzero;"/><path d="M204.375,233.039c2.266,-16.266 1.988,-31.725 8.422,-44.538c19.666,-39.131 49.944,-51.725 85.659,-61.297c8.366,0.466 17.682,-0.237 22.757,1.5c7.637,2.616 15.909,10.785 22.35,15.66c14.765,11.178 28.212,23.59 36.122,40.844c7.153,15.593 14.618,40.099 16.418,56.906c2.288,21.284 -2.222,40.969 -19.434,54.378c-15.069,11.737 -31.725,21.678 -43.247,37.415c-12.984,17.741 -19.069,39.041 -37.137,51.991c-5.082,3.647 -13.003,6.384 -20.572,9.616c-22.147,-9.494 -42.366,-23.766 -55.51,-44.447c-18.809,-29.591 -21.553,-76.866 -15.828,-118.028l0,0Z" style="fill:#454137;fill-rule:nonzero;"/><path d="M446.341,225.389c-4.869,-8.644 -2.838,-19.197 -3.278,-28.65c-0.485,-10.388 -3.419,-19.563 -7.238,-29.432c-7.959,-20.571 -18.44,-33.721 -34.812,-47.3c-0.972,-0.809 -2,-1.593 -3.022,-2.378c24.566,-2.678 50.469,3.282 72.162,13.444c20.216,9.472 51.125,28.766 54.697,55.997c1.041,2.744 1.738,5.625 1.966,8.634c1.241,16.353 -4.025,31.913 -13.156,42.8c6.718,7.219 12.022,15.603 15.706,24.863c-24.994,-14.847 -66.572,-8.797 -83.025,-37.978l0,0Z" style="fill:#454137;fill-rule:nonzero;"/><path d="M268.503,237.692c-0.59,28.709 13.969,51.137 58.694,52.303c23.528,0.616 44.709,-18.953 47.553,-47.531c2.85,-28.597 -13.828,-53.66 -37.24,-55.994c-23.419,-2.331 -68.291,16.747 -69.007,51.222Z" style="fill:#fff;fill-rule:nonzero;"/><path d="M302.666,236.461c-1.856,18.628 10.384,35.097 27.337,36.784c16.953,1.691 32.203,-12.041 34.06,-30.669c1.853,-18.622 -10.388,-35.09 -27.344,-36.781c-16.953,-1.688 -32.2,12.044 -34.053,30.666l0,0Z" style="fill:#221e1f;fill-rule:nonzero;"/><path d="M448.994,202.567c-2.034,20.412 12.025,38.522 31.387,40.45c19.366,1.928 36.719,-13.053 38.75,-33.463c2.035,-20.403 -12.021,-38.518 -31.39,-40.45c-19.359,-1.928 -36.716,13.06 -38.747,33.463l0,0Z" style="fill:#fff;fill-rule:nonzero;"/><path d="M466.728,206.867c-1.443,14.487 7.819,27.278 20.685,28.559c12.856,1.281 24.459,-9.431 25.903,-23.918c1.444,-14.504 -7.819,-27.285 -20.675,-28.566c-12.869,-1.281 -24.469,9.425 -25.913,23.925Z" style="fill:#221e1f;fill-rule:nonzero;"/><path d="M248.081,70.332c9.657,-16.018 39.741,-78.89 64.722,-69.353c12.719,4.863 10.791,31.157 15.119,43.816c13.019,38.05 18.463,59.163 6.353,85.128c-4.237,9.1 -10.643,18.803 -19.634,30.041c-4.525,5.653 -8.825,8.737 -13.141,10.425c-10.968,4.303 -21.937,-0.778 -36.45,2.222c-15.187,3.128 -24.734,7.09 -35.406,-5.575c-1.488,-1.769 -2.997,-3.85 -4.55,-6.31c-21.544,-34.212 6.959,-63.781 22.987,-90.394l0,0Z" style="fill:#454137;fill-rule:nonzero;"/><path d="M328.75,128.261c3.913,-28.7 -1.697,-53.972 -10.747,-81.169c-1.031,-3.097 -1.446,-9.097 -4.109,-11.588c-4.413,-4.131 -3.088,-1 -8.275,-1.606c-7.031,-0.825 -9.241,-2.472 -13.863,5.775c-7.637,13.638 -12.431,28.406 -22.818,40.497c-12.735,14.822 -25.141,34.241 -28.391,54.941c-1.519,9.684 0.685,20.206 5.338,29.356c11.95,11.425 21.025,6.447 35.796,1.675c14.116,-4.563 25.566,-0.713 36.016,-6.185c6.013,-9.418 9.484,-20.162 11.053,-31.696l0,0Z" style="fill:#2d2a21;fill-rule:nonzero;"/><path d="M497.613,123.764c7.659,-23.344 4.622,-41.044 2.3,-65.882c-0.269,-2.831 3.393,-12.756 1.8,-15.421c-2.632,-4.422 -2.156,-1.503 -5.944,-3.119c-5.141,-2.191 -6.531,-4.05 -11.35,1.912c-7.975,9.857 -13.997,21.279 -23.781,29.247c-11.988,9.772 -24.488,23.485 -30.332,40.231c-2.728,7.835 -2.803,17.166 -0.821,25.869c7.096,12.172 14.721,9.913 26.587,9.041c11.344,-0.838 19.303,4.853 28.047,2.465c6.053,-6.649 10.425,-14.962 13.494,-24.343l0,0Z" style="fill:#2d2a21;fill-rule:nonzero;"/><path d="M466.141,330.867c-3.697,-2.228 -10.031,-0.65 -13.725,0.475c-9.016,2.737 -17.528,7.522 -26.931,9.553c-11.182,2.425 -22.422,4.875 -34.032,4.669c-5.018,-0.091 -21.165,-8.663 -21.068,1.197c0.056,6.025 9.589,14.947 14.561,18.776c6.362,-8.191 9.18,-2.826 20.846,-2.602c4.053,0.075 7.091,-5.36 10.447,-5.479c4.187,-0.15 9.471,-3.25 14.096,-3.225c7.975,0.044 12.78,-5.203 19.068,-2.475c3.832,-3.837 9.847,-10.192 13.844,-13.636c3.497,-3.019 8.122,-4.091 2.894,-7.253Z" style="fill:#922f42;fill-rule:nonzero;"/><path d="M399.616,357.456c-1.893,-4.781 -16.833,1.841 -18.774,4.325c-1.028,1.335 -1.963,2.659 -2.756,3.946c-7.426,11.995 -6.241,25.758 -11.491,38.272c-3.697,8.806 -4.866,21.474 6.95,26.315c8.897,3.635 21.334,2.93 29.897,-0.381c4.55,-1.763 8.578,-4.177 11.615,-7.468c3.585,-3.891 5.132,-8.445 6.341,-13.194c1.237,-4.856 1.609,-8.121 3.519,-12.882c2.275,-5.631 2.209,-9.622 3.728,-15.96c1.3,-5.458 1.228,-11.56 3.984,-16.678c0.191,-0.358 0.397,-0.699 0.6,-1.023c0.888,-1.372 1.885,-2.54 2.96,-3.623c-7.382,2.915 -0.59,-9.551 -8.043,-7.349c-8.647,2.552 -13.948,9.452 -22.354,5.7l-6.176,0Z" style="fill:#b7375c;fill-rule:nonzero;"/><path d="M419.133,347.438c-3.362,0.12 -5.888,-1.553 -9.948,-1.629c-11.686,-0.226 -22.299,8.281 -28.672,16.539c2.157,1.676 4.3,2.974 5.991,3.727c8.421,3.756 18.182,3.831 26.844,1.276c7.466,-2.205 15.214,-4.764 22.608,-7.682c1.816,-1.824 3.928,-3.342 6.677,-4.669c0.88,-0.425 3.569,-1.657 6.271,-2.666c1.045,-0.916 2.066,-1.871 3.061,-2.876c-6.299,-2.751 -11.942,-3.519 -19.931,-3.563c-4.633,-0.026 -8.706,1.392 -12.901,1.543l0,0Z" style="fill:#b7375c;fill-rule:nonzero;"/><path d="M421.528,259.095c1.135,14.153 19.657,24.034 41.344,22.059c21.691,-1.975 38.35,-15.056 37.206,-29.206c-1.143,-14.159 -19.653,-24.031 -41.343,-22.059c-21.688,1.975 -38.35,15.047 -37.207,29.206l0,0Z" style="fill:#221e1f;fill-rule:nonzero;"/><path d="M464.185,327.217c1.737,0.169 3.525,-1.025 4.481,-3.219c11.891,-27.641 0.481,-48.134 -0.013,-48.997c-1.475,-2.569 -4.303,-2.965 -6.328,-0.887c-2.018,2.072 -2.472,5.812 -1.022,8.381c0.379,0.687 8.353,15.531 -0.462,36.013c-1.269,2.934 -0.544,6.537 1.616,8.059c0.553,0.372 1.14,0.591 1.728,0.65l0,0Z" style="fill:#221e1f;fill-rule:nonzero;"/><path d="M380.832,350.383c27.678,6.712 74.165,-13.104 84.981,-17.988c20.662,13.737 35.309,17.55 44.74,11.647c6.482,-4.047 8.335,-11.663 8.413,-15.522c0.047,-2.766 -1.931,-4.95 -4.45,-4.894c-2.497,0.063 -4.553,2.328 -4.631,5.075c-0.013,0.275 -0.266,4.688 -3.619,6.725c-2.922,1.778 -12.444,4.085 -37.378,-12.931c-1.228,-0.834 -2.775,-0.947 -4.141,-0.297c-18.344,8.678 -70.103,28.35 -89.09,15.234c-4.654,-3.215 -6.997,-8.278 -7.141,-15.496c-0.063,-2.769 -2.128,-4.863 -4.638,-4.672c-2.518,0.187 -4.506,2.575 -4.443,5.325c0.215,10.575 3.971,18.453 11.171,23.412c2.954,2.038 6.419,3.46 10.226,4.382l0,0Z" style="fill:#221e1f;fill-rule:nonzero;"/></svg>