<?xml version="1.0" standalone="no"?><!DOCTYPE svg PUBLIC "-//W3C//DTD SVG 1.1//EN" "http://www.w3.org/Graphics/SVG/1.1/DTD/svg11.dtd"><svg width="100%" height="100%" viewBox="0 0 644 627" version="1.1" xmlns="http://www.w3.org/2000/svg" xmlns:xlink="http://www.w3.org/1999/xlink" xml:space="preserve" style="fill-rule:evenodd;clip-rule:evenodd;stroke-linejoin:round;stroke-miterlimit:1.41421;"><path d="M482.25,307.357c-0.062,-7.769 1.829,-24.187 13.113,-17.634c4.103,2.375 4.922,7.456 10.125,8.459c6.559,1.253 18.225,-2.056 24.903,-4.634c10.316,-3.975 20.456,-12.038 28.984,-18.894c6.154,9.903 1.991,32.919 -4.159,43.897c-3.184,5.669 -6.678,10.934 -12.131,14.715c-3.953,2.732 -8.119,4.804 -12.431,6.701c-6.55,2.875 -11.919,1.215 -18.341,1.599c-5.913,0.36 -9.541,0.426 -14.484,-2.952c-9.363,-6.394 -15.504,-18.901 -15.579,-31.257Z" style="fill:#2d2a21;fill-rule:nonzero;"/><path d="M543.422,463.645c-1.328,-1.041 -2.781,-1.825 -4.309,-2.441l-63.822,-77.097c-0.487,-1.006 -0.941,-2.019 -1.487,-3c-4.169,-7.469 -9.641,-13.456 -15.857,-17.953l-0.681,-0.825l-0.203,0.2c-16.347,-11.3 -37.709,-12.119 -55.203,-0.019c-24.538,16.969 -32.122,52.813 -16.928,80.053c15.193,27.244 47.4,35.569 71.94,18.607c1.853,-1.278 3.572,-2.697 5.222,-4.182l28.563,34.504c-9.182,18.043 -8.935,37.087 1.575,45.309c12.19,9.537 33.522,0.887 47.665,-19.312c14.135,-20.2 15.716,-44.313 3.525,-53.844Z" style="fill:#2d2a21;fill-rule:nonzero;"/><path d="M46.613,448.598l23.547,51.866l172.544,-96.366l-23.55,-51.869l-172.541,96.369Z" style="fill:#2d2a21;fill-rule:nonzero;"/><path d="M83.329,496.401c-10.579,12.272 -32.307,8.291 -48.525,-8.903c-16.216,-17.197 -20.785,-41.091 -10.207,-53.359c10.575,-12.282 32.297,-8.294 48.519,8.896c16.222,17.197 20.794,41.088 10.213,53.366Z" style="fill:#fff;fill-rule:nonzero;"/><path d="M204.413,417.945c7.128,-6.16 15.728,-11.429 24.044,-16.6c15.912,-9.9 40.618,-16.181 58.675,-8.603c12.703,5.334 24.481,14.487 37.684,17.256c13.422,2.809 28.447,1.975 42.113,3.365c28.44,2.894 54.715,-4.787 82.921,-4.862c23.582,-0.062 51.775,-1.631 66.707,17.956c24.681,-45.978 38.703,-127.772 -18.335,-146.159c-24.728,-7.972 -50.55,-12.463 -75.209,-23.213c-15.966,-6.956 -30.819,-11.559 -45.731,-17.765c-6.022,-2.51 -12.053,-5.275 -18.172,-8.569c-39.981,-21.513 -76.453,3.912 -97.778,38.769c-12.185,19.912 -17.488,40.44 -34.21,56.853c-21.125,20.74 -45.912,44.209 -38.643,77.459c1.59,7.294 4.915,14.188 9.331,20.578c2.215,-2.446 4.481,-4.634 6.603,-6.465Z" style="fill:#454137;fill-rule:nonzero;"/><path d="M247.638,461.967c58.669,22.278 111.712,-14.613 170.034,-6.866c29.066,3.862 67.91,15.262 89.097,-13.031c3.356,-4.481 6.653,-9.772 9.788,-15.613c-14.932,-19.587 -43.125,-18.018 -66.707,-17.956c-28.206,0.075 -54.481,7.756 -82.921,4.862c-13.666,-1.39 -28.691,-0.556 -42.113,-3.365c-13.203,-2.769 -24.981,-11.922 -37.684,-17.256c-18.057,-7.578 -42.763,-1.297 -58.675,8.603c-8.316,5.171 -16.916,10.44 -24.044,16.6c-2.122,1.831 -4.388,4.019 -6.603,6.465c12.04,17.419 32.444,30.953 49.828,37.557Z" style="fill:#e5e5e5;fill-rule:nonzero;"/><path d="M624.472,427.148c-1.615,-0.447 -3.253,-0.613 -4.897,-0.591l-87.975,-46.55c-0.831,-0.74 -1.631,-1.5 -2.503,-2.197c-6.662,-5.29 -13.972,-8.706 -21.409,-10.453l-0.938,-0.497l-0.112,0.263c-19.359,-4.122 -39.413,3.397 -51.034,21.356c-16.307,25.188 -9.838,61.253 14.443,80.55c24.285,19.3 57.188,14.525 73.497,-10.656c1.228,-1.9 2.285,-3.875 3.256,-5.888l39.369,20.835c-1.703,20.231 5.685,37.74 18.488,41.272c14.853,4.096 31.322,-12.163 36.8,-36.31c5.472,-24.144 -2.132,-47.047 -16.985,-51.134Z" style="fill:#454137;fill-rule:nonzero;"/><path d="M183.432,530.123l40.84,36.328l133.453,-180.728l-53.415,-22.744l-120.878,167.144Z" style="fill:#454137;fill-rule:nonzero;"/><path d="M223.954,570.957c-7.041,15.075 -28.904,18.007 -48.819,6.553c-19.922,-11.462 -30.347,-32.965 -23.303,-48.047c7.056,-15.075 28.912,-18 48.828,-6.55c19.915,11.457 30.347,32.963 23.294,48.044Z" style="fill:#fff;fill-rule:nonzero;"/><path d="M348.897,214.689l-0.14,-0.132c-3.385,-3.006 -8.582,-6.55 -13.157,-6.556c-6.743,-0.009 -5.612,8.519 -5.809,13.244c-0.341,8.072 4.469,11.262 6.516,18.681c3.406,12.356 0.265,28.503 -2.622,40.7c-3.372,14.234 -9.06,27.862 -16.688,40.206c-14.778,23.903 -36.428,42.81 -61.003,55.203c-13.05,6.578 -26.937,11.347 -41.178,14.26c-5.875,1.2 -12.778,4.659 -18.6,4.79c-8.534,0.197 -15.566,-7.834 -24.462,-6.225c-9.044,1.638 -8.154,12.619 -4.366,19.01c12.353,20.818 41.553,16.715 61.184,12.694c21.597,-4.422 42.922,-11.122 62.632,-21.388c45.553,-23.725 74.753,-66.425 78.35,-119.438c0.7,-10.328 -0.4,-20.709 -2.9,-30.718c-3.316,-13.269 -7.479,-25.122 -17.757,-34.331Z" style="fill:#fe8b00;fill-rule:nonzero;"/><path d="M123.925,54.804c-10.303,-12.822 -43.665,-63.875 -65.34,-53.397c-11.038,5.341 -6.719,27.672 -9.406,38.916c-8.06,33.784 -10.929,52.365 2.568,73.481c4.722,7.4 11.469,15.116 20.703,23.903c4.641,4.425 8.838,6.669 12.907,7.716c10.35,2.665 19.778,-2.7 33.206,-1.475c14.047,1.278 23.078,3.784 31.497,-8.05c1.175,-1.647 2.331,-3.569 3.5,-5.819c16.156,-31.291 -12.531,-53.969 -29.635,-75.275Z" style="fill:#454137;fill-rule:nonzero;"/><path d="M199.838,330.176c-9.9,-16.8 -25.494,-28.344 -39.322,-41.516c-15.8,-15.05 -18.331,-35.084 -13.95,-56.037c3.456,-16.544 13.316,-40.191 21.978,-55c9.585,-16.381 24.191,-27.4 39.994,-37.063c6.891,-4.212 15.937,-11.522 23.794,-13.365c5.218,-1.225 14.418,0.397 22.79,0.762l-0.762,-0.294c-12.078,-4.543 -24.785,-5.172 -38.453,-4.4c-16.928,0.957 -22.141,0.257 -35.36,-6.512c-1.853,-0.95 -3.737,-1.831 -5.647,-2.641l-0.484,-0.187c-1.756,-0.738 -3.534,-1.431 -5.337,-2.056l-0.069,-0.022c-3.903,-1.353 -7.894,-2.447 -11.947,-3.303l-0.034,0.021c-1.094,0.679 -2.197,1.36 -3.244,2.066c-17.635,11.891 -29.375,23.938 -39.331,43.616c-4.779,9.443 -8.61,18.284 -10.122,28.572c-1.372,9.362 -0.397,20.065 -6.1,28.184c-19.263,27.406 -60.035,17.262 -86.378,29.562l-0.007,0.013c-0.875,1.69 -1.69,3.422 -2.453,5.184l-0.184,0.45c-0.691,1.625 -1.331,3.282 -1.922,4.969c-0.2,0.594 -0.375,1.209 -0.569,1.813c-0.422,1.318 -0.844,2.637 -1.2,3.987c-0.54,2.059 -1.019,4.15 -1.403,6.288c-6.519,36.431 -9.659,72.809 25.275,97.059c5.431,7.219 13.891,11.781 23.534,18.122c40.091,26.359 92.191,27.728 137.219,27.728c2.456,0 4.953,-0.044 7.475,-0.128c1.46,-0.053 2.941,-0.147 4.419,-0.225c1.037,-0.056 2.066,-0.094 3.109,-0.166c2.016,-0.137 4.05,-0.318 6.088,-0.519c0.497,-0.046 0.99,-0.081 1.487,-0.131c2.341,-0.244 4.694,-0.531 7.06,-0.856l0.556,-0.072c2.541,-0.356 5.087,-0.759 7.634,-1.212l0.019,-0.003c7.756,-1.391 15.528,-3.251 23.147,-5.657l0.025,-0.006c-7.216,-3.966 -14.825,-7.478 -19.519,-11.606c-16.7,-14.678 -20.644,-36.478 -31.806,-55.419Z" style="fill:#fff;fill-rule:nonzero;"/><path d="M338.25,242.598c-0.643,-16.413 1.169,-31.769 -3.965,-45.153c-15.691,-40.891 -44.572,-56.422 -79.163,-69.488c-8.372,-0.365 -17.572,-1.987 -22.79,-0.762c-7.857,1.843 -16.903,9.153 -23.794,13.365c-15.803,9.663 -30.409,20.682 -39.994,37.063c-8.662,14.809 -18.522,38.456 -21.978,55c-4.381,20.953 -1.85,40.987 13.95,56.037c13.828,13.172 29.422,24.716 39.322,41.516c11.162,18.941 15.106,40.741 31.806,55.419c4.694,4.128 12.303,7.64 19.519,11.606c22.978,-7.253 44.509,-19.45 59.641,-38.728c21.643,-27.578 29.065,-74.35 27.446,-115.875Z" style="fill:#454137;fill-rule:nonzero;"/><path d="M98.232,211.001c5.703,-8.119 4.728,-18.822 6.1,-28.184c1.512,-10.288 5.343,-19.129 10.122,-28.572c9.956,-19.678 21.696,-31.725 39.331,-43.616c1.047,-0.706 2.15,-1.387 3.244,-2.066c-24.182,-5.1 -50.55,-1.737 -73.144,6.225c-21.053,7.419 -53.722,23.56 -59.978,50.3c-1.307,2.629 -2.285,5.425 -2.81,8.4c-2.859,16.147 0.841,32.151 8.847,43.891c-7.4,6.519 -13.509,14.335 -18.09,23.184c26.343,-12.3 67.115,-2.156 86.378,-29.562Z" style="fill:#454137;fill-rule:nonzero;"/><path d="M273.975,240.87c-2.256,28.628 -18.965,49.503 -63.587,46.228c-23.472,-1.722 -42.609,-23.291 -42.609,-52.01c0,-28.74 19.078,-52.025 42.609,-52.025c23.534,0 66.297,23.432 63.587,57.807Z" style="fill:#fff;fill-rule:nonzero;"/><path d="M240.107,236.26c0,18.719 -13.813,33.894 -30.85,33.894c-17.038,0 -30.85,-15.175 -30.85,-33.894c0,-18.715 13.812,-33.89 30.85,-33.89c17.037,0 30.85,15.175 30.85,33.89Z" style="fill:#221e1f;fill-rule:nonzero;"/><path d="M97.854,188.029c0,20.509 -15.782,37.138 -35.241,37.138c-19.463,0 -35.244,-16.629 -35.244,-37.138c0,-20.506 15.781,-37.137 35.244,-37.137c19.459,0 35.241,16.631 35.241,37.137Z" style="fill:#fff;fill-rule:nonzero;"/><path d="M79.782,190.548c0,14.559 -10.485,26.372 -23.413,26.372c-12.922,0 -23.406,-11.813 -23.406,-26.372c0,-14.572 10.484,-26.372 23.406,-26.372c12.928,0 23.413,11.8 23.413,26.372Z" style="fill:#221e1f;fill-rule:nonzero;"/><path d="M69.675,315.398c-1.725,0 -3.365,-1.466 -4.093,-3.925c-9.119,-30.925 3.972,-51.763 4.534,-52.635c1.681,-2.606 4.497,-2.743 6.288,-0.3c1.787,2.438 1.887,6.504 0.228,9.113c-0.435,0.7 -9.628,15.819 -2.869,38.737c0.969,3.282 -0.078,7.078 -2.338,8.491c-0.568,0.344 -1.168,0.519 -1.75,0.519Z" style="fill:#221e1f;fill-rule:nonzero;"/><path d="M117.807,246.632c-2.425,15.091 -21.5,23.784 -42.588,19.416c-21.094,-4.372 -36.222,-20.147 -33.794,-35.235c2.425,-15.09 21.494,-23.781 42.585,-19.412c21.094,4.366 36.228,20.14 33.797,35.231Z" style="fill:#221e1f;fill-rule:nonzero;"/><path d="M147.732,360.826c-28.044,0.006 -68.103,-32.612 -77.36,-40.488c-22.912,9.166 -37.812,9.447 -45.518,0.85c-5.291,-5.9 -5.338,-14.356 -4.538,-18.428c0.575,-2.918 2.966,-4.706 5.369,-4.006c2.375,0.7 3.844,3.603 3.294,6.503c-0.054,0.294 -0.81,4.985 1.937,7.978c2.4,2.613 11.003,7.453 38.747,-4.068c1.366,-0.563 2.872,-0.288 4.041,0.737c15.612,13.778 60.75,47.584 81.915,38.644c5.191,-2.191 8.581,-6.91 10.35,-14.45c0.688,-2.891 3.144,-4.56 5.51,-3.722c2.362,0.831 3.728,3.844 3.046,6.719c-2.6,11.04 -7.984,18.353 -16.006,21.731c-3.294,1.387 -6.928,2 -10.787,2Z" style="fill:#221e1f;fill-rule:nonzero;"/><path d="M310.885,76.36c-8.019,-16.897 -31.722,-82.443 -57.525,-75.428c-13.141,3.578 -13.825,29.931 -19.391,42.103c-16.722,36.569 -24.234,57.038 -14.759,84.075c3.315,9.479 8.728,19.769 16.562,31.841c3.938,6.072 7.916,9.569 12.041,11.678c10.491,5.369 21.909,1.397 36.053,5.822c14.8,4.619 23.909,9.506 35.784,-2.037c1.654,-1.613 3.363,-3.535 5.154,-5.829c24.828,-31.909 -0.607,-64.156 -13.919,-92.225Z" style="fill:#454137;fill-rule:nonzero;"/><path d="M224.872,126.004c-1.047,-28.944 7.038,-53.538 18.744,-79.7c1.331,-2.981 2.338,-8.913 5.234,-11.125c4.8,-3.672 3.172,-0.687 8.391,-0.781c7.081,-0.122 9.441,-1.541 13.222,7.122c6.25,14.328 9.559,29.5 18.697,42.559c11.203,16.013 21.625,36.566 22.803,57.484c0.55,9.791 -2.681,20.038 -8.219,28.685c-13.028,10.184 -21.565,4.331 -35.787,-1.881c-13.594,-5.941 -25.372,-3.244 -35.228,-9.725c-5.047,-9.966 -7.438,-21.004 -7.857,-32.638Z" style="fill:#2d2a21;fill-rule:nonzero;"/><path d="M57.285,104.795c-5.306,-23.988 -0.528,-41.3 4.244,-65.788c0.546,-2.79 -2.113,-13.028 -0.263,-15.522c3.056,-4.14 2.294,-1.281 6.222,-2.515c5.334,-1.672 6.9,-3.385 11.106,3.028c6.96,10.6 11.819,22.559 20.763,31.459c10.962,10.916 22.043,25.797 26.193,43.041c1.941,8.065 1.091,17.359 -1.743,25.822c-8.269,11.412 -15.632,8.406 -27.353,6.362c-11.207,-1.959 -19.688,2.913 -28.154,-0.325c-5.365,-7.219 -8.89,-15.925 -11.015,-25.562Z" style="fill:#2d2a21;fill-rule:nonzero;"/></svg>