<?xml version="1.0" standalone="no"?><!DOCTYPE svg PUBLIC "-//W3C//DTD SVG 1.1//EN" "http://www.w3.org/Graphics/SVG/1.1/DTD/svg11.dtd"><svg width="100%" height="100%" viewBox="0 0 120 27" version="1.1" xmlns="http://www.w3.org/2000/svg" xmlns:xlink="http://www.w3.org/1999/xlink" xml:space="preserve" style="fill-rule:evenodd;clip-rule:evenodd;stroke-linejoin:round;stroke-miterlimit:1.41421;"><g><path d="M12.44,13.519l-0.724,0l0,-2.775l0.785,0c1.057,0 1.618,0.461 1.618,1.356c0,0.984 -0.622,1.419 -1.679,1.419ZM19.161,16.916c-0.871,0 -1.356,-0.81 -1.356,-1.904c0,-1.12 0.472,-1.915 1.356,-1.915c0.895,0 1.393,0.808 1.393,1.915c0,1.12 -0.472,1.904 -1.393,1.904ZM34.535,12.91c0.721,0 1.094,0.523 1.194,1.456l-2.401,0c0.111,-0.97 0.609,-1.456 1.207,-1.456ZM45.439,12.91c0.721,0 1.096,0.523 1.194,1.456l-2.401,0c0.113,-0.97 0.611,-1.456 1.207,-1.456ZM51.774,16.804c-0.658,0 -1.156,-0.548 -1.156,-1.716c0,-1.32 0.573,-1.954 1.356,-1.954c0.511,0 0.797,0.086 1.169,0.262l0,2.587c-0.398,0.498 -0.821,0.821 -1.369,0.821ZM61.509,16.866c-0.423,0 -0.634,-0.05 -0.945,-0.162l0,-2.725c0.373,-0.447 0.821,-0.783 1.319,-0.783c0.672,0 1.144,0.572 1.144,1.729c0,1.369 -0.572,1.941 -1.518,1.941ZM99.213,17.242c-0.258,0 -0.483,-0.051 -0.688,-0.154l0,-3.795c0.43,-0.452 0.821,-0.503 0.964,-0.503c0.648,0 0.964,0.697 0.964,2.061c0,0.781 -0.112,1.385 -0.348,1.797c-0.205,0.389 -0.523,0.594 -0.892,0.594ZM107.509,12.574c0.575,0 0.872,0.701 0.913,1.829l-1.877,0c0.072,-1.139 0.379,-1.829 0.964,-1.829ZM109.992,11.938c-0.555,-0.716 -1.386,-1.086 -2.441,-1.086c-2.165,0 -3.51,1.6 -3.51,4.165c0,1.435 0.36,2.513 1.067,3.199c0.637,0.615 1.549,0.924 2.729,0.924c1.088,0 2.093,-0.257 2.728,-0.678l-0.276,-1.744c-0.625,0.34 -1.355,0.524 -2.174,0.524c-0.494,0 -0.831,-0.103 -1.078,-0.318c-0.267,-0.226 -0.42,-0.439 -0.471,-0.962l4.214,0c0.012,-0.122 0.033,-0.698 0.033,-0.882c0,-1.271 -0.278,-2.433 -0.821,-3.142ZM102.218,11.723c-0.45,-0.583 -1.077,-0.871 -1.877,-0.871c-0.738,0 -1.386,0.307 -1.99,0.953l-0.133,-0.799l-2.237,0l0,10.965l2.544,-0.421l0,-2.595c0.39,0.124 0.79,0.185 1.149,0.185c0.636,0 1.56,-0.164 2.277,-0.943c0.688,-0.749 1.036,-1.909 1.036,-3.437c0,-1.355 -0.255,-2.38 -0.769,-3.037ZM93.521,7.246c-0.749,0 -1.343,0.596 -1.343,1.345c0,0.738 0.594,1.344 1.343,1.344c0.738,0 1.334,-0.606 1.334,-1.344c0,-0.749 -0.596,-1.345 -1.334,-1.345ZM91.28,10.956c-0.175,-0.04 -0.328,-0.061 -0.482,-0.061c-0.719,0 -1.169,0.378 -1.393,1.054l-0.155,-0.943l-2.225,0l0,7.98l2.543,0l0,-5.181c0.319,-0.389 0.645,-0.53 1.26,-0.53c0.134,0 0.277,0 0.452,0.031l0,-2.35ZM84.602,11.006l0,-2.291l-2.184,0.358l-0.316,1.933l-0.769,0.124l-0.38,1.763l1.145,0l0,3.703c0,0.964 0.248,1.631 0.749,2.041c0.421,0.339 1.027,0.503 1.878,0.503c0.656,0 1.056,-0.113 1.334,-0.185l0,-2c-0.154,0.041 -0.503,0.112 -0.739,0.112c-0.503,0 -0.718,-0.255 -0.718,-0.84l0,-3.334l1.317,0l0.307,-1.887l-1.624,0ZM77.974,12.729c0.769,0 1.37,0.297 1.915,0.564l0.307,-1.898c-0.431,-0.206 -1.125,-0.543 -2.346,-0.543c-0.861,0 -1.58,0.225 -2.092,0.646c-0.534,0.44 -0.81,1.076 -0.81,1.846c0,1.395 0.85,1.989 2.235,2.492c0.893,0.318 1.191,0.545 1.191,0.894c0,0.337 -0.288,0.533 -0.812,0.533c-0.646,0 -1.713,-0.318 -2.41,-0.729l-0.307,1.918c0.595,0.339 1.702,0.688 2.851,0.688c0.914,0 1.672,-0.215 2.185,-0.627c0.575,-0.45 0.872,-1.116 0.872,-1.979c0,-1.426 -0.872,-2.02 -2.276,-2.523c-0.749,-0.276 -1.161,-0.492 -1.161,-0.831c0,-0.287 0.237,-0.451 0.658,-0.451ZM69.488,12.001l-1.319,4.181l-1.393,-4.268l-1.556,0.199l2.178,5.923l-0.087,0.247c-0.236,0.561 -0.585,0.761 -1.058,0.761c-0.261,0 -0.474,-0.037 -0.66,-0.087l0.199,1.256c0.137,0.037 0.286,0.061 0.611,0.061c1.081,0 1.779,-0.435 2.288,-1.878l2.303,-6.395l-1.506,0ZM62.269,11.877c-0.76,0 -1.32,0.399 -1.705,0.796l0,-3.645l-1.493,0.236l0,8.423c0.746,0.249 1.53,0.399 2.463,0.399c1.792,0 2.998,-1.033 2.998,-3.248c0,-2.016 -0.996,-2.961 -2.263,-2.961ZM54.636,9.028l-1.493,0.236l0,2.899c-0.359,-0.124 -0.821,-0.223 -1.393,-0.223c-1.393,0 -2.625,0.994 -2.625,3.234c0,2.028 1.007,2.962 2.264,2.962c0.834,0 1.419,-0.449 1.841,-0.96l0.126,0.834l1.28,0l0,-8.982ZM45.476,11.877c-1.567,0 -2.737,1.183 -2.737,3.135c0,2.164 1.257,3.124 2.936,3.124c0.97,0 1.755,-0.288 2.402,-0.735l-0.175,-1.169c-0.659,0.459 -1.293,0.745 -2.065,0.745c-0.92,0 -1.555,-0.496 -1.629,-1.679l3.869,0c0,-0.087 0.011,-0.236 0.011,-0.36c0,-1.705 -0.808,-3.061 -2.612,-3.061ZM41.904,11.877c-0.934,0.05 -1.532,0.635 -1.93,1.331l-0.186,-1.207l-1.268,0l0,6.009l1.493,0l0,-3.446c0.422,-0.646 1.193,-1.144 2.127,-1.207l-0.236,-1.48ZM34.572,11.877c-1.568,0 -2.737,1.183 -2.737,3.135c0,2.164 1.257,3.124 2.936,3.124c0.971,0 1.755,-0.288 2.401,-0.735l-0.174,-1.169c-0.66,0.459 -1.293,0.745 -2.066,0.745c-0.919,0 -1.554,-0.496 -1.63,-1.679l3.87,0c0,-0.087 0.013,-0.236 0.013,-0.36c0,-1.705 -0.809,-3.061 -2.613,-3.061ZM29.764,12.001l-1.033,3.969l-1.081,-3.969l-1.32,0l-1.083,3.982l-1.057,-4.069l-1.517,0.199l1.792,5.91l1.367,0l1.083,-3.969l1.107,3.969l1.369,0l1.792,-6.022l-1.419,0ZM19.174,11.877c-1.631,0 -2.825,1.183 -2.825,3.135c0,1.954 1.183,3.124 2.812,3.124c1.642,0 2.849,-1.17 2.849,-3.124c0,-1.952 -1.194,-3.135 -2.836,-3.135ZM12.587,9.427l-2.513,0l0,8.583l1.642,0l0,-3.16l0.735,0c1.967,0 3.284,-0.932 3.284,-2.787c0,-1.728 -1.181,-2.636 -3.148,-2.636ZM92.239,18.986l2.553,0l0,-7.98l-2.553,0l0,7.98ZM113.001,27l-107.002,0c-3.313,0 -5.999,-2.686 -5.999,-6.001l0,-13.999c0,-3.314 2.686,-6.001 5.999,-6.001l107.002,0c3.313,0 6,2.687 6,6.001l0,13.999c0,3.315 -2.687,6.001 -6,6.001Z" style="fill:#231f20;"/></g></svg>